<?xml version="1.0" encoding="UTF-8" standalone="no"?>
<!-- Created with Inkscape (http://www.inkscape.org/) -->

<svg
   xmlns:dc="http://purl.org/dc/elements/1.1/"
   xmlns:cc="http://creativecommons.org/ns#"
   xmlns:rdf="http://www.w3.org/1999/02/22-rdf-syntax-ns#"
   xmlns:svg="http://www.w3.org/2000/svg"
   xmlns="http://www.w3.org/2000/svg"
   xmlns:inkscape="http://www.inkscape.org/namespaces/inkscape"
   version="1.1"
   width="658.8255"
   height="1028.5797"
   id="svg2">
  <title
     id="title3142">Woman Nude 4</title>
  <defs
     id="defs4">
    <inkscape:path-effect
       effect="spiro"
       id="path-effect3138" />
    <inkscape:path-effect
       effect="spiro"
       id="path-effect3134" />
    <inkscape:path-effect
       effect="spiro"
       id="path-effect3130" />
    <inkscape:path-effect
       effect="spiro"
       id="path-effect3126" />
    <inkscape:path-effect
       effect="spiro"
       id="path-effect3122" />
    <inkscape:path-effect
       effect="spiro"
       id="path-effect3118" />
    <inkscape:path-effect
       effect="spiro"
       id="path-effect3114" />
    <inkscape:path-effect
       effect="spiro"
       id="path-effect3110" />
    <inkscape:path-effect
       effect="spiro"
       id="path-effect3106" />
  </defs>
  <metadata
     id="metadata7">
    <rdf:RDF>
      <cc:Work
         rdf:about="">
        <dc:format>image/svg+xml</dc:format>
        <dc:type
           rdf:resource="http://purl.org/dc/dcmitype/StillImage" />
        <dc:title>Woman Nude 4</dc:title>
        <dc:date>2016</dc:date>
        <dc:creator>
          <cc:Agent>
            <dc:title>Doodleguy</dc:title>
          </cc:Agent>
        </dc:creator>
        <dc:rights>
          <cc:Agent>
            <dc:title>All Rights Reserved</dc:title>
          </cc:Agent>
        </dc:rights>
      </cc:Work>
    </rdf:RDF>
  </metadata>
  <g
     transform="translate(-55.684469,-12.838356)"
     id="layer1">
    <path
       d="m 96.839173,1039.7813 c 0.839431,-2.5183 29.194477,-3.6676 30.692337,-1.244 0.48702,0.7881 1.59916,1.4328 2.47141,1.4328 0.87224,0 1.21835,-0.5947 0.76912,-1.3215 -1.1084,-1.7934 -2.01339,-1.704 41.86288,-4.1369 46.2728,-2.5658 69.14353,-4.0894 74.53709,-4.9657 2.18061,-0.3543 10.38762,-1.08 18.2378,-1.6126 7.85018,-0.5326 17.84133,-1.2449 22.20254,-1.5829 4.36122,-0.338 15.77966,-0.9787 25.37433,-1.4239 37.22868,-1.7275 46.00704,-2.5715 52.44738,-5.0429 2.12003,-0.8135 2.46169,-0.5307 1.42881,1.1826 -1.0892,1.8068 -0.76697,1.7817 1.63015,-0.127 1.74129,-1.3864 2.49084,-1.5518 1.79672,-0.3965 -0.74945,1.2475 -0.27438,1.9824 1.28147,1.9824 3.92502,0 2.86683,3.1606 -1.09582,3.2731 -1.96255,0.056 -5.98649,0.3372 -8.9421,0.6258 -3.5424,0.3458 -4.62338,0.049 -3.17179,-0.8699 1.21111,-0.767 1.45272,-1.4054 0.53686,-1.4188 -0.91586,-0.013 -2.36301,0.6735 -3.21587,1.5264 -0.85288,0.8529 -11.51341,1.665 -23.69011,1.8048 -12.17668,0.1398 -24.28895,0.8757 -26.91613,1.6354 -9.63691,2.7864 -116.7422,9.9386 -177.43954,11.849 -26.22304,0.8253 -31.397036,0.6288 -30.797537,-1.1697 z m -23.058414,-10.3838 c -2.964928,-2.9649 0.317639,-3.7135 14.599945,-3.3294 11.745916,0.3158 15.467156,0.9163 14.896346,2.4038 -0.8118,2.1155 -27.469849,2.952 -29.496291,0.9256 z m 34.011131,-1.111 c -1.04667,-1.2645 -0.002,-1.8985 3.52835,-2.1409 2.75846,-0.1895 6.6809,-0.7533 8.71653,-1.253 2.62159,-0.6436 3.35962,-0.356 2.53028,0.986 -0.81631,1.3208 -0.49637,1.4722 1.05654,0.5001 3.55014,-2.2223 9.81188,-2.6894 8.54363,-0.6374 -0.64606,1.0454 0.29531,0.9123 2.28865,-0.3236 2.86418,-1.7759 3.61936,-1.7328 4.89934,0.2794 1.00567,1.5809 1.52138,1.7139 1.53752,0.3964 0.0126,-1.0903 0.55951,-1.8978 1.2137,-1.7945 0.65417,0.1033 1.90307,-0.01 2.77532,-0.2502 0.87223,-0.2408 3.72685,-0.5869 6.34358,-0.769 2.61673,-0.1821 6.72022,-0.736 9.1189,-1.2308 2.43321,-0.5019 4.36121,-0.2035 4.36121,0.6749 0,0.866 0.71365,1.1334 1.5859,0.5943 0.87223,-0.539 1.58589,-0.3163 1.58589,0.4951 0,1.7087 -8.91136,2.9929 -30.13202,4.3423 -8.28631,0.5269 -18.08106,1.1761 -21.76615,1.4427 -3.68508,0.2666 -7.36931,-0.3237 -8.18717,-1.3118 z m 62.41272,-5.678 c 0.39099,-0.6326 3.06029,-1.2886 5.9318,-1.4579 2.8715,-0.1692 7.47066,-0.5495 10.22031,-0.8452 5.4044,-0.581 9.94079,1.2885 7.95211,3.2771 -0.67636,0.6764 -1.89366,0.18 -2.70511,-1.1031 -0.81146,-1.2832 -1.48633,-1.5202 -1.49967,-0.5268 -0.0159,1.1629 -3.68994,1.8062 -10.3173,1.8062 -5.66116,0 -9.9731,-0.5177 -9.58214,-1.1503 z m 26.21875,-1.4513 c 0,-0.9921 1.60571,-1.9057 3.56825,-2.0303 1.96255,-0.1247 6.7797,-0.3973 10.7048,-0.6061 3.9251,-0.2087 12.48892,-0.8129 19.03075,-1.3426 30.67788,-2.4841 37.95054,-2.5527 37.10532,-0.35 -0.86287,2.2486 -9.86303,3.1792 -49.39601,5.1076 -15.24379,0.7436 -21.01311,0.5298 -21.01311,-0.7786 z m 222.81833,-3.7464 c -2.61673,-0.9308 -6.16539,-2.6586 -7.88588,-3.8396 -1.7205,-1.1809 -4.73521,-2.1472 -6.69934,-2.1472 -2.356,0 -4.40001,-1.6029 -6.00711,-4.7107 -1.33981,-2.5908 -3.84015,-5.4621 -5.55632,-6.3806 -1.7162,-0.91851 -4.88781,-3.43741 -7.04804,-5.59761 -4.93514,-4.9352 -7.73684,-4.968 -10.33079,-0.1212 -5.23662,9.78471 -31.09955,13.23841 -43.97686,5.87251 -6.05175,-3.46161 -7.8319,-3.70871 -20.61664,-2.86271 -7.69615,0.5094 -20.77269,1.7428 -29.059,2.74111 -23.01267,2.7724 -24.30467,2.4387 -60.68775,-15.67821 -17.9705,-8.94835 -25.47006,-13.65435 -32.1448,-20.17099 -7.07587,-6.90828 -13.8307,-17.07722 -11.55158,-17.39017 0.27938,-0.0384 -0.77058,-2.02107 -2.33326,-4.406 -1.56268,-2.38495 -2.45884,-4.95498 -1.99147,-5.71118 0.46734,-0.75622 -0.13221,-1.75179 -1.33264,-2.21237 -3.71557,-1.4258 -9.09822,-31.21282 -5.6403,-31.21282 0.93329,0 1.14444,-0.87385 0.47345,-1.95952 -1.68193,-2.72143 -0.85639,-10.6844 2.83856,-27.37954 1.73738,-7.85018 3.4782,-16.71302 3.86847,-19.69521 0.3903,-2.98219 1.07063,-7.62093 1.51189,-10.30832 0.9019,-5.49284 11.56646,-35.73954 13.46526,-38.18998 0.67587,-0.87225 4.47188,-8.97051 8.43556,-17.99613 6.55802,-14.93312 17.48567,-33.54527 20.47325,-34.87035 0.65961,-0.29257 0.78498,-1.20232 0.27859,-2.02167 -0.5064,-0.81935 -0.22425,-1.29363 0.62698,-1.05397 2.58814,0.72872 16.22753,-14.91503 20.36061,-23.35266 2.1363,-4.36121 5.36879,-10.7841 7.18329,-14.27307 2.7868,-5.3585 4.19041,-9.75303 8.10455,-25.37433 0.21855,-0.87223 0.8646,-2.33224 1.43564,-3.24443 0.57106,-0.91221 2.10162,-5.90778 3.40122,-11.10127 1.29961,-5.19352 4.27904,-16.22244 6.62096,-24.50873 6.33505,-22.41498 6.7689,-25.69357 3.79362,-28.66887 -1.40136,-1.40135 -2.98587,-6.24591 -3.52118,-10.76573 -0.5353,-4.5198 -1.52006,-9.09291 -2.18835,-10.16242 -0.66829,-1.06953 -1.34707,-2.65825 -1.50838,-3.53049 -1.46452,-7.91832 -4.17541,-17.36183 -6.64533,-23.14927 -1.63903,-3.84051 -3.50499,-9.83736 -4.1466,-13.32632 -0.6416,-3.48898 -2.26448,-7.56733 -3.6064,-9.063 -1.34193,-1.49569 -3.39819,-6.49126 -4.56949,-11.10128 -1.1713,-4.61002 -3.13689,-11.95011 -4.36798,-16.31132 -1.2311,-4.36122 -2.65523,-10.78409 -3.16474,-14.27307 -1.15431,-7.90426 -3.91308,-22.49224 -5.24847,-27.75317 -0.5535,-2.18061 -1.17312,-6.81936 -1.37695,-10.30832 -0.20382,-3.48897 -1.14621,-8.28124 -2.09423,-10.64945 -2.40424,-6.00604 -2.69045,-53.31143 -0.41532,-68.64533 2.28261,-15.3843 6.32751,-32.70283 8.16396,-34.95455 0.74046,-0.90792 1.75615,-3.97713 2.25708,-6.82048 0.50093,-2.84335 1.51507,-6.38244 2.25368,-7.86464 4.37672,-8.78312 8.10363,-18.21181 8.13417,-20.57864 0.0193,-1.50309 1.26828,-4.21837 2.77532,-6.03396 4.25017,-5.12037 20.94004,-17.03833 29.39454,-20.99015 5.6995,-2.66407 7.41973,-4.25121 6.81537,-6.28806 -0.44461,-1.49849 -1.16323,-4.50865 -1.59695,-6.68927 -0.43371,-2.1806 -1.87683,-8.60349 -3.20695,-14.27305 -1.33011,-5.66958 -2.75144,-12.80612 -3.15854,-15.85897 -5.53495,-41.5087 -7.86202,-98.92168 -5.23876,-129.25049 2.57476,-29.768194 3.15151,-35.379508 4.28175,-41.659291 0.69802,-3.878244 0.59325,-7.155957 -0.24526,-7.674196 -0.8736,-0.539901 -0.8127,-1.68901 0.15092,-2.850234 0.88811,-1.070099 2.09299,-6.180538 2.67754,-11.356552 0.81704,-7.234808 2.37844,-11.244476 6.75258,-17.340405 6.34038,-8.836118 9.82677,-12.019027 11.81745,-10.788721 0.7335,0.453345 2.30655,-0.564768 3.49566,-2.26247 2.46642,-3.521274 19.89428,-11.782729 25.54054,-12.107123 2.06778,-0.118784 3.76015,-0.632313 3.76075,-1.141116 6.1e-4,-0.508818 1.0716,-0.925116 2.37997,-0.925116 1.30836,0 2.37885,0.636832 2.37885,1.415174 0,0.778357 0.67074,1.000637 1.49055,0.493959 0.8198,-0.506663 3.85283,0.519032 6.74005,2.279328 2.88723,1.760296 6.35567,3.203207 7.70764,3.20646 1.35198,0.0031 3.35067,0.897996 4.44153,1.988301 1.09086,1.090303 4.62343,2.076777 7.85018,2.192166 12.27016,0.438802 21.49105,2.090195 22.74962,4.074278 1.02178,1.610794 1.32269,1.541204 1.38113,-0.319336 0.13866,-4.41228 4.57095,3.266818 7.41457,12.845833 2.82336,9.510806 3.10726,9.721017 15.55476,11.518154 11.37794,1.642702 18.56896,9.382443 24.62272,26.501553 4.99818,14.1341 5.78013,19.65513 3.02495,21.357924 -2.26648,1.40076 -3.17846,0.27577 -4.80859,-5.931834 -1.37645,-5.2415 -1.34968,-4.78833 0.86186,14.589054 0.24887,2.1806 0.94708,10.03078 1.55153,17.44485 0.60448,7.41407 1.43282,16.04859 1.84077,19.18785 0.95047,7.31415 1.71131,16.98405 3.04467,38.69734 0.58922,9.59466 1.36587,22.08359 1.72594,27.75317 0.36006,5.66958 0.95908,24.50795 1.33117,41.86304 0.51093,23.83112 1.18932,31.87995 2.7715,32.88343 1.15225,0.7308 6.02007,2.45288 10.8174,3.82688 13.11993,3.75763 31.35856,13.32126 35.91144,18.83054 4.08501,4.94313 14.67643,22.9999 22.86607,38.98313 9.65915,18.85123 12.47467,29.50847 15.29264,57.88519 1.67313,16.84842 1.12535,49.23241 -0.92164,54.48542 -0.89862,2.306 -2.00584,17.03847 -2.46052,32.73884 -0.81486,28.13696 -1.48481,38.26744 -3.35621,50.74866 -0.52311,3.48898 -1.24113,9.91185 -1.59558,14.27307 -1.12631,13.85825 -2.61649,28.44216 -3.23445,31.65442 -1.48137,7.70039 -2.28926,15.33394 -2.99748,28.32223 -0.41944,7.69211 -1.43155,16.61277 -2.24914,19.82369 -0.81757,3.2109 -1.91563,9.66022 -2.44011,14.3318 -0.5245,4.67157 -1.74692,13.59224 -2.7165,19.8237 -0.96959,6.23144 -1.99862,13.82769 -2.28671,16.88054 -0.82512,8.7432 -1.56233,12.54319 -2.6431,13.62396 -1.54374,1.54375 4.88729,17.64971 11.97415,29.98817 3.50693,6.1057 9.84859,14.60908 14.09261,18.89641 4.244,4.28733 8.12813,9.43573 8.63139,11.44092 0.50328,2.00518 2.23245,4.06388 3.8426,4.57494 3.09141,0.98117 18.95965,17.54069 18.95965,19.7856 0,0.72312 4.72988,7.62373 10.51082,15.33467 5.78093,7.71096 11.45774,16.16089 12.61513,18.77761 1.15739,2.61673 4.27464,7.96914 6.92725,11.89422 2.65262,3.9251 4.84869,8.20702 4.88016,9.51537 0.0316,1.30836 1.10501,3.76415 2.38563,5.45727 1.28062,1.69314 2.3284,4.77308 2.3284,6.84433 0,2.07123 0.69863,5.07127 1.5525,6.66674 4.8735,9.10623 7.84143,41.40217 5.76246,62.70528 -1.36925,14.03095 -2.03938,16.37194 -6.04928,21.1328 -2.00449,2.37986 -4.51177,5.37827 -5.57173,6.66312 -1.05997,1.28486 -4.09299,4.92811 -6.74005,8.09611 -2.64707,3.16798 -4.81285,6.24383 -4.81285,6.83519 0,1.89714 -10.40906,14.78033 -15.19408,18.80552 -2.54629,2.142 -8.19787,5.5464 -12.55909,7.5654 -4.36121,2.019 -10.42726,5.2895 -13.48011,7.26771 -10.97294,7.1105 -27.70101,10.7673 -57.09225,12.4806 -8.2863,0.483 -17.92062,1.2908 -21.40959,1.7951 -3.48896,0.5044 -13.68206,1.0953 -22.65131,1.3132 -8.96926,0.2179 -16.75997,0.8484 -17.3127,1.4011 -1.2322,1.2322 -1.66079,1.1794 -7.61285,-0.9378 z m 45.72609,-6.3833 c -0.3934,-0.6541 4.14401,-1.2805 10.08312,-1.3918 5.93912,-0.1113 12.2257,-0.4026 13.9702,-0.6473 1.74448,-0.2447 6.38322,-0.8007 10.3083,-1.2357 3.9251,-0.435 9.63433,-1.1925 12.68718,-1.6833 3.05285,-0.4908 8.67987,-1.2634 12.50452,-1.7169 3.82461,-0.4535 7.74971,-1.463 8.72241,-2.2433 0.97271,-0.7804 8.90509,-5.15021 17.6275,-9.71071 17.1452,-8.96438 23.27628,-14.55755 35.39068,-32.28566 10.7413,-15.7187 13.20976,-20.1785 13.68563,-24.72596 0.28461,-2.71959 1.51556,-4.21378 3.74611,-4.54723 2.77744,-0.41521 3.09144,-1.10362 1.91491,-4.19816 -0.77403,-2.03583 -1.10724,-4.00157 -0.74052,-4.36832 1.3685,-1.36848 1.83677,-20.58304 0.65919,-27.04792 -0.67206,-3.68948 -1.67246,-10.27641 -2.22314,-14.63763 -0.91986,-7.28497 -2.91557,-15.45737 -5.22821,-21.40959 -0.50835,-1.30836 -0.80342,-2.9367 -0.65575,-3.6185 0.34972,-1.61449 -5.05648,-12.90811 -10.0348,-20.96288 -2.15641,-3.48898 -5.11731,-8.48454 -6.57981,-11.10128 -1.46247,-2.61671 -6.7259,-10.11007 -11.69649,-16.6519 -4.97057,-6.54181 -10.14359,-14.03517 -11.49558,-16.6519 -2.7908,-5.40146 -8.40628,-11.56298 -13.73084,-15.06601 -9.97241,-6.56082 -12.32755,-8.89401 -11.89882,-11.78783 0.28189,-1.90271 -2.67325,-6.44337 -7.79111,-11.97126 -7.32185,-7.90846 -14.10656,-19.56792 -22.44662,-38.57428 -2.65653,-6.05404 -3.26451,-18.49068 -2.76728,-56.6088 0.10815,-8.28629 0.18831,-16.13649 0.1783,-17.44484 -0.15343,-20.02674 2.46427,-62.31471 4.01239,-64.81964 1.62029,-2.62168 2.63814,-63.99591 1.14049,-68.76899 -0.89346,-2.84749 -1.97455,-10.17281 -2.40243,-16.27851 -0.42788,-6.1057 -1.88217,-19.30828 -3.23173,-29.33908 -1.34957,-10.03078 -2.82756,-21.44923 -3.28442,-25.37432 -0.98208,-8.43721 -4.60177,-27.35107 -6.52537,-34.09676 -1.69065,-5.92884 -1.90549,-9.30592 -0.78471,-12.33566 1.45153,-3.92386 1.39603,-4.03126 4.73555,9.16387 3.3443,13.21406 9.50598,49.36657 10.54144,61.84993 0.4341,5.23345 1.51927,12.73314 2.41148,16.66598 2.53538,11.17573 3.2941,22.26726 3.71302,54.28008 0.21725,16.60287 -0.46317,36.3622 -1.54216,44.7833 -1.06203,8.28882 -2.31127,34.169 -2.77608,57.51151 -0.76862,38.59986 -0.35225,41.3939 2.63834,17.70444 0.50627,-4.0104 1.58979,-10.43329 2.4078,-14.27307 0.81803,-3.83977 1.96789,-14.80547 2.55522,-24.36822 0.58735,-9.56274 1.44529,-17.99741 1.90651,-18.74369 0.46123,-0.74628 1.0813,-3.98384 1.37792,-7.19459 0.29661,-3.21071 1.01753,-10.83324 1.60204,-16.93894 0.58448,-6.1057 1.037,-12.17175 1.00556,-13.48012 -0.0315,-1.30836 0.61022,-5.94711 1.4259,-10.30832 0.81572,-4.36122 1.80242,-12.2114 2.19268,-17.44485 0.39024,-5.23346 1.08034,-11.65633 1.53353,-14.27306 0.45315,-2.61672 0.83911,-14.16561 0.85764,-25.66418 0.0186,-11.49856 0.70329,-22.66765 1.52166,-24.82015 2.21141,-5.81644 3.1758,-36.82699 1.51008,-48.5577 -0.79909,-5.62751 -1.76406,-13.12087 -2.14437,-16.6519 -2.96519,-27.53022 -8.15479,-41.60837 -24.2893,-65.89111 -4.92624,-7.41406 -9.39175,-13.83695 -9.92335,-14.27307 -0.5316,-0.43612 -1.39121,-1.94769 -1.91024,-3.35904 -1.17613,-3.19812 -18.61072,-12.84409 -28.16404,-15.5822 -3.92508,-1.12499 -9.21479,-2.67903 -11.7549,-3.45346 -2.5401,-0.77442 -4.77905,-1.22641 -4.97542,-1.00441 -0.19638,0.22199 -0.78904,5.30336 -1.31702,11.29193 -1.2838,14.56128 -3.49825,22.34512 -9.22208,32.41577 -5.98149,10.52401 -10.46061,10.89201 -13.40094,1.101 -1.04779,-3.48897 -1.9599,-5.77288 -2.02694,-5.07535 -0.0671,0.69752 -1.34611,0.58312 -2.84236,-0.25425 -2.15751,-1.20739 -3.31126,-0.55106 -5.57509,3.17148 -3.15596,5.18959 -7.11564,4.8692 -4.32254,-0.34975 0.91493,-1.70957 1.16573,-3.91376 0.55732,-4.89819 -0.64581,-1.04494 -1.84828,0.45383 -2.88915,3.60102 -1.17067,3.53961 -2.72214,5.31529 -4.51778,5.17067 -1.50414,-0.1212 -2.75703,0.23569 -2.7842,0.79294 -0.40239,8.25528 -1.91206,23.7374 -2.48295,25.46333 -1.46412,4.42636 -4.31396,-1.18608 -4.46041,-8.78427 -0.15029,-7.8001 -3.08552,-11.07912 -4.87376,-5.44481 -1.37231,4.32375 -4.92095,4.1512 -6.35827,-0.30918 -1.08542,-3.36829 -1.20775,-3.30164 -2.18291,1.18943 -1.17603,5.41617 -3.84888,6.31758 -4.70238,1.58589 -0.31467,-1.74448 -1.20002,-3.83327 -1.96743,-4.64173 -1.60232,-1.68803 -0.57878,8.18283 1.7097,16.48819 1.87925,6.82024 -0.44785,10.09741 -3.9149,5.51315 -2.17623,-2.87749 -2.33776,-2.63635 -2.38478,3.55991 -0.0533,7.02549 -2.62841,10.59804 -4.1408,5.74474 -1.58966,-5.10127 -3.1259,-7.28224 -4.68964,-6.65786 -1.60534,0.64099 -1.68379,2.77419 -0.34323,9.33267 2.48632,12.16396 2.87141,17.20095 1.38523,18.11945 -2.12687,1.3145 -4.94916,-4.10209 -4.94916,-9.49848 0,-2.35108 -1.40073,-9.71295 -3.11273,-16.35968 -1.71201,-6.64675 -3.60176,-14.9396 -4.19947,-18.42857 -0.90825,-5.30161 -1.24355,-5.7421 -2.04142,-2.68172 -1.58232,6.0692 -4.07633,4.03147 -4.91944,-4.01942 -0.70748,-6.7558 -1.17754,-7.51845 -4.36121,-7.07576 -2.56434,0.35656 -3.5751,-0.31274 -3.59255,-2.37885 -0.0187,-2.2138 -0.33727,-2.38105 -1.38524,-0.72726 -0.81641,1.28844 -0.20586,6.63823 1.52603,13.37125 1.58783,6.17292 2.52589,11.80774 2.08458,12.52178 -1.31124,2.12167 -3.78699,1.47645 -3.78699,-0.98694 0,-1.25688 -0.70289,-2.71967 -1.562,-3.25063 -0.96261,-0.59493 -1.20559,0.8168 -0.63319,3.67881 1.03123,5.15608 -2.02024,8.59201 -3.49911,3.93995 -2.79017,-8.777 -3.78883,-8.92233 -3.41506,-0.49699 0.36505,8.22889 0.18505,8.69436 -3.18133,8.22626 -2.88549,-0.40121 -3.56826,0.26648 -3.56826,3.48946 0,2.19209 1.00417,4.55633 2.23152,5.25385 3.04805,1.7323 3.97373,13.47287 1.13681,14.4185 -2.88994,0.96333 -4.5022,-1.96834 -6.79581,-12.35733 -1.05914,-4.79733 -2.01316,-9.07925 -2.12008,-9.51537 -0.1069,-0.43611 -0.72349,-4.71804 -1.37015,-9.51537 -1.31231,-9.73555 -2.81926,-17.39876 -6.861,-34.8897 -1.51166,-6.54183 -2.80459,-12.25104 -2.8732,-12.68718 -0.0687,-0.43611 -1.42243,-5.96693 -3.00851,-12.29068 -2.63859,-10.52015 -3.22826,-11.49774 -6.93532,-11.49774 -4.64951,0 -17.845,7.84249 -25.18845,14.97026 -4.26696,4.14164 -10.13282,14.88293 -14.77542,27.05596 -13.38799,35.10379 -15.1868,45.61781 -14.92289,87.22427 0.17304,27.27685 1.43236,39.74044 5.92888,58.67814 3.12576,13.16454 4.25761,19.01486 5.1095,26.40926 0.53733,4.66424 1.97805,10.06233 3.20155,11.99577 1.22353,1.93343 2.46653,4.78804 2.76221,6.34358 2.26684,11.92535 3.37688,15.69548 5.14048,17.45906 1.11276,1.11277 2.86727,6.12626 3.89889,11.14107 1.03163,5.01481 2.54007,10.37707 3.35211,11.91613 3.02326,5.73006 10.8556,34.56896 10.8556,39.97066 0,5.83511 2.38663,7.64029 3.73565,2.82554 0.60843,-2.17155 3.01001,-31.36907 3.22851,-39.25092 0.20309,-7.3266 -3.35236,-25.97264 -9.87675,-51.79738 -15.43862,-61.1087 -16.01427,-64.12794 -16.27904,-85.38259 -0.32505,-26.09258 2.41619,-44.40508 6.6471,-44.40508 0.73903,0 0.96063,-0.99828 0.49241,-2.21843 -0.95549,-2.48998 1.84068,-4.94853 3.17416,-2.79091 0.47111,0.76228 0.12372,3.80694 -0.77189,6.76592 -0.89567,2.95897 -1.93731,7.87774 -2.31477,10.93059 -0.37748,3.05285 -1.14503,8.04842 -1.7057,11.10127 -0.56065,3.05284 -0.87447,13.03731 -0.69731,22.1877 0.26166,13.51751 1.7699,22.88456 8.04367,49.95571 4.24686,18.32525 8.87484,36.53009 10.28435,40.45517 3.88619,10.82191 7.20859,30.18147 7.40095,43.12514 0.24222,16.30037 -3.15703,46.30228 -6.5238,57.57924 -1.56247,5.23345 -4.78098,17.00873 -7.15224,26.16727 -2.37126,9.15855 -5.97591,20.6732 -8.01031,25.58812 -2.0344,4.91489 -4.2064,12.40825 -4.82665,16.6519 -0.96462,6.59965 -4.0508,14.08029 -10.05304,24.3676 -0.76337,1.30837 -2.33261,4.5198 -3.48719,7.13653 -2.25552,5.11193 -10.08792,15.61636 -18.32854,24.58138 -10.39964,11.31382 -19.47793,26.77734 -25.13723,42.8175 -1.11465,3.1592 -4.24695,9.90484 -6.9607,14.9903 -2.71376,5.08547 -4.93412,10.24477 -4.93412,11.4651 0,1.2203 -1.3568,4.87832 -3.01512,8.1289 -1.65832,3.25055 -3.45922,8.75294 -4.00203,12.22751 -0.54282,3.47455 -1.31327,7.38786 -1.71212,8.69622 -0.39887,1.30837 -1.13283,5.23345 -1.63099,8.72242 -0.4982,3.48898 -1.16643,8.12772 -1.48499,10.30832 -0.31856,2.18062 -1.30208,6.81936 -2.18557,10.30833 -5.92244,23.38758 -3.83231,38.41849 9.1187,65.57623 3.14772,6.60065 18.80059,21.34656 25.73655,24.24532 2.8431,1.18821 8.77658,4.11398 13.18554,6.50169 4.40894,2.38771 14.08232,7.32994 21.49638,10.98274 13.28138,6.5436 13.71391,6.638 29.33907,6.4017 8.72243,-0.1319 19.78404,-1.0067 24.58139,-1.9439 10.24978,-2.0023 36.29893,-3.1721 44.78882,-2.0114 7.37819,1.0088 6.23077,3.6392 -1.58748,3.6392 -8.83624,0 -4.19252,2.9318 5.98189,3.7767 4.78607,0.3974 11.55657,-0.068 15.04554,-1.0343 6.95675,-1.9267 13.95311,-6.4985 12.36907,-8.0826 -0.55192,-0.5519 -0.17088,-1.0034 0.84672,-1.0034 2.65957,0 2.2791,-4.01339 -0.60758,-6.40914 -1.35179,-1.12188 -4.98566,-7.45373 -8.0753,-14.07076 -3.08962,-6.61704 -6.12304,-13.10146 -6.74095,-14.40983 -0.61789,-1.30836 -2.66592,-7.37441 -4.55118,-13.48011 -8.74458,-28.32066 -10.228,-38.19298 -10.00853,-66.60762 0.17143,-22.19772 1.46497,-26.2936 12.49403,-39.56114 1.46604,-1.76362 -0.0821,-14.14707 -2.51137,-20.09013 -0.93189,-2.2797 -2.77284,-4.55876 -4.09095,-5.06458 -1.31814,-0.5058 -3.1877,-2.39785 -4.15462,-4.20456 -1.41856,-2.65062 -1.25641,-3.47739 0.83976,-4.28176 4.90564,-1.88249 15.19325,13.21527 15.46186,22.69134 0.0828,2.92204 0.29049,5.3128 0.46146,5.3128 0.17098,0 4.13303,-3.55576 8.8046,-7.90171 4.67154,-4.34593 9.74261,-7.91421 11.26904,-7.92947 1.52642,-0.0159 2.77532,0.22895 2.77532,0.54275 0,0.31378 -6.78506,7.23609 -15.07793,15.3829 -20.10687,19.7527 -21.91887,23.67928 -21.83355,47.31254 0.0365,10.12422 0.86567,23.76006 1.8425,30.30188 2.32475,15.56895 2.48282,16.37336 3.58385,18.23779 0.5151,0.87225 1.43591,4.34996 2.04625,7.72826 0.61035,3.37829 1.73023,7.30337 2.48861,8.72243 0.75837,1.41904 3.32449,7.93246 5.70246,14.47429 2.37797,6.54181 4.92009,12.1321 5.64916,12.42283 0.72906,0.29077 1.32559,1.25107 1.32559,2.13404 0,3.43511 7.14584,11.32534 19.555,21.59206 14.94345,12.36351 26.13906,18.46551 35.1584,19.16271 3.48896,0.2696 6.59944,0.7391 6.91217,1.0432 1.15901,1.1272 33.15899,-0.1 32.47034,-1.245 z M 370.10674,748.21036 c -1.0444,-1.68989 0.29573,-10.52337 2.04174,-13.45806 0.49699,-0.83534 1.04257,-2.97629 1.21238,-4.75769 1.96603,-20.62318 2.71241,-27.51365 3.27119,-30.19909 0.67823,-3.25955 2.7973,-23.17951 4.55505,-42.81918 1.3232,-14.78428 1.28101,-46.57781 -0.0684,-51.54161 -0.99903,-3.67495 -2.1528,-10.15508 -4.65905,-26.16729 -2.71024,-17.31556 -5.95788,-33.44224 -7.02325,-34.87502 -1.68014,-2.25958 -5.98205,-14.56701 -8.0429,-23.01017 -0.95805,-3.92508 -2.87669,-9.77434 -4.26364,-12.99834 -2.87321,-6.67885 -1.87397,-12.293 1.66517,-9.35576 1.80602,1.49885 5.67417,12.72748 8.14579,23.64587 0.3328,1.47013 2.37957,6.9549 4.54838,12.18835 2.16881,5.23345 5.09678,15.93826 6.50662,23.78844 1.40986,7.85018 3.20562,17.84131 3.99061,22.20253 3.54796,19.71182 4.73003,27.65784 5.54425,37.26855 1.95704,23.10054 -7.65776,113.0768 -12.45842,116.58713 -1.31228,0.95956 -1.86877,2.58147 -1.23667,3.60424 1.77985,2.87986 1.21481,10.30992 -0.836,10.99327 -1.01038,0.33667 -2.31215,-0.15658 -2.89283,-1.09617 z M 485.3537,381.72432 c 0.38162,-1.14482 1.6305,-2.3937 2.77532,-2.77532 1.18943,-0.39647 1.78413,0.19824 1.38766,1.38766 -0.38161,1.14481 -1.63051,2.39371 -2.77532,2.77532 -1.18942,0.39647 -1.78413,-0.19823 -1.38766,-1.38766 z m 18.26915,297.86952 c -0.37934,-1.97271 -0.70412,-0.73215 -0.72171,2.75682 -0.0176,3.48898 0.29276,5.10301 0.6897,3.58676 0.39693,-1.51625 0.41133,-4.37087 0.0321,-6.34358 z M 312.49108,360.1165 c -1.90211,-11.47882 -0.17329,-17.23417 2.8155,-9.37302 0.90467,2.37942 1.64483,5.06977 1.64483,5.97855 0,0.90878 1.12884,1.21914 2.50856,0.6897 1.37969,-0.52945 3.54577,-0.96262 4.81348,-0.96262 1.67885,0 1.91923,-0.75386 0.88501,-2.77532 -2.78814,-5.44951 -16.81681,-54.17516 -20.20442,-70.17588 -0.46167,-2.1806 -1.64108,-6.81934 -2.62089,-10.30832 -0.9798,-3.48897 -1.85853,-7.05723 -1.95268,-7.92948 -0.0942,-0.87223 -0.65822,-3.72685 -1.25344,-6.34358 -0.59524,-2.61673 -1.46101,-7.42066 -1.92395,-10.67541 -0.46293,-3.25473 -1.52159,-8.96396 -2.35259,-12.68716 -1.52831,-6.84745 -3.39589,-25.91875 -3.53596,-36.10851 -0.16096,-11.70815 3.34546,-30.13202 5.73468,-30.13202 0.43613,0 0.14259,1.71075 -0.65244,3.80168 -0.79497,2.09091 -1.09493,4.15212 -0.66661,4.58045 0.42833,0.42834 1.05114,11.38491 1.38402,24.34796 0.33289,12.96307 1.04241,25.71016 1.57672,28.32689 0.53432,2.61673 1.34787,7.6123 1.8079,11.10126 2.01358,15.27178 5.7806,32.57273 8.63771,39.67081 1.04808,2.60385 2.54568,7.94572 3.32796,11.8708 2.44567,12.27093 2.56241,12.68741 6.02378,21.48983 0.70333,1.78862 2.12317,7.31942 3.1552,12.29069 1.93074,9.30034 2.47984,9.9722 6.21607,7.60572 1.82123,-1.15355 1.62289,-3.17741 -1.18942,-12.13702 -1.85631,-5.91395 -3.37949,-11.88133 -3.38487,-13.26086 -0.005,-1.37953 -1.08408,-4.56824 -2.39715,-7.08601 -2.82633,-5.41945 -7.17866,-23.36469 -6.09285,-25.12158 0.41662,-0.67409 0.12073,-1.22561 -0.6577,-1.22561 -0.77835,0 -1.4546,-0.89208 -1.5028,-1.98237 -0.0483,-1.09031 -1.30262,-6.26428 -2.78762,-11.49775 -1.48501,-5.23345 -2.68437,-10.58585 -2.66525,-11.89422 0.019,-1.30836 -0.62869,-7.37441 -1.43954,-13.48011 -1.72494,-12.98863 -2.90984,-35.0745 -3.0204,-56.29929 -0.0863,-16.57192 -0.10423,-17.21887 -0.85134,-30.92496 -0.28531,-5.23347 -0.59879,-17.36557 -0.69665,-26.96023 -0.14573,-14.28376 -0.52088,-16.87011 -2.07065,-14.27306 -1.04101,1.74449 -1.94997,3.52862 -2.01991,3.96474 -0.07,0.43612 -1.75712,7.76967 -3.74926,16.29676 -1.99216,8.52709 -3.81451,17.80457 -4.04962,20.61665 -0.23513,2.81206 -0.52914,6.0049 -0.65336,7.09519 -0.12419,1.09031 -1.3444,1.98238 -2.71156,1.98238 -1.63662,0 -2.19291,-0.94802 -1.62851,-2.77532 0.47144,-1.52643 1.27942,-7.05724 1.79554,-12.29069 1.36568,-13.84837 6.1162,-32.77519 9.35421,-37.26855 4.64537,-6.446374 7.1966,-15.131404 9.55008,-32.510868 3.92431,-28.97915 4.09917,-29.873516 6.59954,-33.754853 2.67551,-4.153238 17.53644,-11.443172 23.32748,-11.443172 2.14318,0 4.30747,1.07048 4.80955,2.378844 0.67616,1.762057 -0.22731,2.378843 -3.48457,2.378843 -5.62324,0 -18.92052,8.38279 -20.72421,13.064846 -2.27014,5.892839 -4.80087,18.776576 -5.84459,29.754336 -0.53904,5.669576 -1.52261,14.94707 -2.18568,20.61664 -2.4512,20.958444 0.28421,125.614764 3.81347,145.902404 0.37932,2.1806 1.06477,6.46252 1.5232,9.51537 2.7224,18.1298 22.65012,85.32366 26.54805,89.51687 2.7961,3.00794 2.83159,2.94807 1.41019,-2.37883 -0.80196,-3.00544 -1.74032,-7.60537 -2.08526,-10.2221 -0.34495,-2.61673 -1.07652,-5.82817 -1.62569,-7.13654 -0.54918,-1.30836 -1.32845,-4.16296 -1.73167,-6.34358 -0.40325,-2.18059 -1.48257,-7.74673 -2.39852,-12.36918 -0.91595,-4.62245 -1.55494,-8.90436 -1.41997,-9.51537 0.38399,-1.73835 -1.87026,-16.2975 -3.60971,-23.31347 -0.86502,-3.48897 -1.88691,-11.69597 -2.27084,-18.2378 -1.19239,-20.31697 -2.24332,-28.56153 -4.07754,-31.98881 -1.32487,-2.47555 -1.29365,-3.59767 0.12451,-4.47414 1.31913,-0.81526 1.59935,-4.23925 0.92447,-11.29605 -2.81448,-29.4296 -5.17036,-71.28901 -4.80953,-85.45623 0.76986,-30.227984 1.22805,-37.531016 2.57861,-41.101707 1.00173,-2.648382 0.86313,-4.195773 -0.44836,-5.006324 -1.4394,-0.889593 -1.29911,-2.454729 0.58037,-6.475163 1.36323,-2.916099 3.58256,-7.982734 4.93183,-11.259194 2.56259,-6.222736 8.4096,-12.342265 15.50449,-16.227169 2.29647,-1.257457 4.60802,-4.010064 5.13681,-6.116895 0.52877,-2.10683 2.57495,-4.31121 4.54703,-4.898609 2.97081,-0.884898 2.13187,-1.462354 -4.89278,-3.367808 -4.66313,-1.264879 -9.57348,-2.912624 -10.9119,-3.661643 -5.29892,-2.965435 -22.23873,4.467214 -35.03215,15.370976 -9.44825,8.052718 -12.40686,12.797923 -13.93402,22.348172 -0.57564,3.599856 -1.59953,6.886925 -2.27532,7.304588 -0.67577,0.417661 -0.82645,2.297566 -0.33483,4.177581 0.57265,2.189821 0.28736,3.043335 -0.79393,2.375069 -1.06103,-0.655752 -1.38189,0.126707 -0.86399,2.107163 0.45311,1.732655 0.26977,4.409837 -0.4074,5.949298 -1.72799,3.928343 -1.86935,5.727641 -0.59368,7.556701 0.60835,0.87224 0.53232,5.86781 -0.16895,11.10127 -0.70126,5.233454 -1.74184,13.083644 -2.3124,17.444854 -1.6475,12.59315 -1.99474,42.8013 -0.72004,62.64287 0.64442,10.0308 1.55509,26.80164 2.02374,37.26856 0.46862,10.46691 1.55805,20.81486 2.42093,22.99548 1.10892,2.80239 1.62991,-7.19387 1.77706,-34.09676 0.11444,-20.93381 0.17674,-39.66722 0.13834,-41.62976 -0.0393,-2.00939 0.88567,-3.56826 2.11738,-3.56826 1.79432,0 2.22498,7.03016 2.39728,39.13201 0.1517,28.28078 0.74968,39.79914 2.15618,41.53773 1.54482,1.90956 1.53735,2.16007 -0.0362,1.21472 -2.35953,-1.41756 -2.52435,1.88708 -0.52374,10.50241 1.79562,7.73271 -0.7914,9.42043 -3.80494,2.48224 -3.11054,-7.16153 -3.1928,-1.38373 -0.12985,9.11568 1.25487,4.30146 2.73701,10.99046 3.29366,14.86442 0.55664,3.87399 2.0853,10.20473 3.39703,14.06833 1.31171,3.86361 2.67471,8.54417 3.02883,10.40128 0.35412,1.85707 2.7488,10.86987 5.3215,20.02842 2.5727,9.15855 5.17165,20.22018 5.77546,24.58139 0.6038,4.3612 1.27884,8.99995 1.50007,10.30831 0.22124,1.30837 0.91749,5.48031 1.54726,9.271 0.80048,4.81832 1.64662,6.39053 2.81201,5.22515 1.16542,-1.16542 1.13113,-4.90095 -0.11382,-12.41465 z m 41.20233,4.75987 c -2.21133,-4.13192 -3.01433,-20.13692 -1.05934,-21.11442 1.2552,-0.62761 4.03282,10.32252 5.37945,21.2073 0.0942,0.76098 1.1289,0.58876 2.29947,-0.38272 1.17055,-0.97147 2.62694,-1.26766 3.23641,-0.65821 1.05888,1.0589 0.44231,-10.30206 -1.48174,-27.30291 -1.78897,-15.80733 -2.60807,-20.77622 -4.90011,-29.7255 -3.72197,-14.5326 -4.16573,-16.86521 -5.96258,-31.34279 -0.48639,-3.91886 -1.30651,-8.90935 -1.8225,-11.08995 -0.51598,-2.18061 -1.12602,-7.94496 -1.35567,-12.80967 -0.22963,-4.86469 -0.87077,-9.57828 -1.42473,-10.47461 -0.55397,-0.89635 -1.39541,-7.97775 -1.86984,-15.73646 -0.47445,-7.75873 -1.34054,-20.88647 -1.92463,-29.17277 -1.25571,-17.81342 -1.22263,-55.85472 0.0641,-73.74415 1.02655,-14.27211 -1.13091,-11.82357 -2.80459,3.18296 -0.58301,5.22731 -1.45444,10.82415 -1.93652,12.4374 -0.48208,1.61326 -1.10757,4.46788 -1.38999,6.34358 -0.28242,1.87572 -1.28772,7.69231 -2.23401,12.92576 -0.94631,5.23345 -2.02912,12.36999 -2.40629,15.85895 -2.02011,18.68786 -2.98107,30.64139 -2.80479,34.88972 1.19977,28.91672 2.10248,43.36485 3.41844,54.7134 0.85974,7.41405 2.02652,18.11886 2.59285,23.78842 0.56635,5.66958 2.80747,18.51534 4.98027,28.54612 2.17282,10.0308 4.92565,22.87655 6.1174,28.54613 4.87371,23.18622 5.99273,27.03848 7.4351,25.59612 0.89895,-0.89896 0.84234,-2.63466 -0.14621,-4.4817 z m 17.7965,-23.09679 0.98796,-3.56827 3.15007,3.96474 c 5.22032,6.5704 6.39811,1.80784 5.68684,-22.99548 -0.57664,-20.10853 -1.24456,-26.943 -3.33219,-34.09676 -0.3818,-1.30837 -1.08718,-5.94711 -1.5675,-10.30833 -0.48034,-4.3612 -1.66329,-9.9149 -2.62879,-12.34153 -0.96552,-2.42664 -1.3277,-4.83985 -0.80485,-5.36268 0.52283,-0.52285 0.22794,-2.30093 -0.65531,-3.95132 -1.45987,-2.72778 -1.8326,-2.77407 -4.09776,-0.50892 -3.21139,3.2114 -4.15487,2.19001 -2.39562,-2.59345 2.02841,-5.5153 0.9163,-25.69519 -2.35,-42.64265 -1.29876,-6.73861 -2.17881,-13.18159 -2.81606,-20.61665 -0.33641,-3.92509 -1.79574,-16.41401 -3.24298,-27.75317 -1.44724,-11.33915 -3.12238,-24.54173 -3.72251,-29.33907 -0.60016,-4.79733 -0.72894,-11.52155 -0.28621,-14.9427 0.79998,-6.18175 0.81787,-6.19593 2.89018,-2.29093 1.14686,2.16115 1.95442,4.60345 1.79456,5.42733 -0.71929,3.70715 0.19222,15.39947 1.12762,14.46407 0.57343,-0.57344 1.33296,-5.15272 1.68782,-10.17615 0.35486,-5.02344 0.90313,-10.56083 1.21837,-12.30531 0.31522,-1.74449 0.62618,-3.74916 0.69099,-4.45482 0.0649,-0.70566 0.8315,-0.84195 1.70375,-0.30287 2.29718,1.41974 1.96031,10.28467 -0.39648,10.43353 -1.5859,0.10023 -1.5859,0.28517 0,0.9251 1.0903,0.43994 1.98238,1.85302 1.98238,3.14018 0,1.29788 -0.77686,1.86016 -1.74412,1.26236 -1.25827,-0.77765 -1.27281,-0.19727 -0.0522,2.08345 0.93056,1.73876 1.32738,4.85792 0.88183,6.93145 -0.81195,3.77869 -0.77221,26.68798 0.085,48.96807 0.25169,6.54182 1.656,18.67392 3.12072,26.96023 1.46472,8.2863 2.9634,16.85014 3.33038,19.03074 0.36699,2.18061 1.7389,8.24667 3.04869,13.48011 1.30982,5.23347 2.44897,11.65634 2.53147,14.27307 0.0825,2.61674 0.55292,3.6872 1.04542,2.37884 0.4925,-1.30835 1.61629,-4.16297 2.49732,-6.34358 4.25654,-10.5352 4.47461,-25.60139 0.84933,-58.67814 -1.76859,-16.13648 -3.46255,-33.97781 -3.76435,-39.64739 -1.05945,-19.90257 -2.02381,-30.94716 -2.90791,-33.3038 -0.49084,-1.30837 -0.74711,-3.44933 -0.5695,-4.75769 0.17759,-1.30836 -0.22613,-5.64035 -0.89717,-9.62664 -0.67104,-3.986284 -0.57389,-8.981854 0.21589,-11.101274 1.2721,-3.41377 1.65671,-2.79533 3.37073,5.42003 1.06412,5.100444 1.58865,10.597024 1.16562,12.214654 -0.423,1.61763 -0.19664,3.15378 0.50303,3.41366 0.69965,0.25988 1.6389,8.83632 2.0872,19.05876 0.44829,10.22243 1.14649,19.1431 1.55156,19.8237 0.40507,0.6806 1.22181,6.23301 1.81501,12.33871 0.59318,6.1057 1.38367,13.24223 1.75662,15.85897 1.08046,7.58038 1.98422,17.84258 3.09433,35.1362 1.13415,17.66823 -1.02871,30.07786 -7.13801,40.95496 -3.2131,5.72066 -3.24256,6.32713 -0.91484,18.83039 5.2238,28.05941 7.08339,45.69968 6.23334,59.12993 -0.44478,7.02739 -0.0376,9.95702 1.46423,10.5333 1.28282,0.49225 2.17371,-0.50395 2.32375,-2.59845 0.13378,-1.86823 0.97632,-9.10599 1.87216,-16.08394 0.89585,-6.97795 2.0843,-16.96908 2.64098,-22.20254 0.55671,-5.23345 1.8195,-10.03968 2.80622,-10.68051 1.31126,-0.85158 1.29002,-1.17168 -0.0789,-1.18943 -1.32805,-0.0173 -1.89518,-5.44609 -1.94923,-18.65855 -0.0418,-10.24886 -0.26956,-26.12763 -0.50585,-35.28618 -0.3561,-13.80227 -0.03,-16.6519 1.9061,-16.6519 1.88356,0 2.41243,3.22346 2.73195,16.6519 0.75788,31.84973 0.64584,69.02327 -0.22582,74.93357 -2.53711,17.20246 -2.56758,17.78729 -0.83647,16.05619 2.79058,-2.79059 6.16847,-19.27515 7.27096,-35.48342 0.56362,-8.2863 1.72307,-15.51203 2.57653,-16.05718 0.97764,-0.62447 0.90508,-1.39087 -0.19617,-2.07147 -1.86838,-1.15472 -1.44726,-51.48354 0.45657,-54.56399 0.55244,-0.89391 0.41028,-1.99252 -0.31597,-2.44136 -0.72624,-0.44885 -1.45826,-8.16991 -1.62672,-17.15794 -1.02258,-54.55989 -1.87042,-71.68853 -3.62831,-73.30235 -1.36925,-1.25702 -1.5709,-1.18603 -0.75186,0.26467 1.27703,2.26196 0.006,2.74882 -1.36781,0.52434 -0.49562,-0.80193 0.22689,-2.58606 1.60558,-3.96474 2.27264,-2.27264 2.27398,-2.5067 0.0141,-2.5067 -2.83085,0 -3.37899,-4.02238 -0.76806,-5.63603 1.24152,-0.76729 1.24152,-1.54812 0,-2.78963 -2.31392,-2.31393 -2.22608,-6.34485 0.1069,-4.90301 1.25325,0.77455 1.39316,0.42881 0.44341,-1.09582 -1.33754,-2.14721 -1.60278,-3.57174 -2.92469,-15.707524 -0.33255,-3.05285 -0.75471,-5.55064 -0.93815,-5.55064 -0.18346,0 -0.49207,-2.140957 -0.68582,-4.757686 -1.40573,-18.985692 -4.0916,-31.645405 -9.33682,-44.008603 -1.62765,-3.836424 -4.72653,-5.318587 -9.46623,-4.527605 -0.68951,0.115137 -2.76985,-0.602213 -4.62294,-1.593969 -7.17953,-3.842355 -25.80313,-0.597707 -22.11725,3.853331 1.11276,1.343745 -0.67055,2.977708 -6.32155,5.792182 -4.32935,2.156215 -9.51685,6.081307 -11.52775,8.722426 -3.64106,4.782157 -6.61059,11.657427 -6.01266,13.920913 0.17281,0.654181 -0.29778,1.18942 -1.04576,1.18942 -0.74799,0 -1.87922,4.460333 -2.51385,9.911849 -0.63462,5.451516 -1.48178,12.409632 -1.88258,15.462482 -1.73363,13.205584 -0.54821,86.205954 1.43201,88.186194 1.27149,1.27149 3.29529,-8.93497 2.9443,-14.84867 -0.1686,-2.84039 0.3861,-6.45851 1.23264,-8.04031 0.84656,-1.58179 2.34556,-9.249 3.33109,-17.03821 0.98554,-7.78924 2.43326,-16.3032 3.21716,-18.91993 0.7839,-2.61673 1.83431,-7.25547 2.33423,-10.30832 0.49994,-3.05285 1.51042,-7.77684 2.24556,-10.497764 1.10584,-4.09307 0.8894,-4.9144 -1.25374,-4.75769 -2.06075,0.15067 -2.5029,-1.10749 -2.16279,-6.15414 0.85046,-12.619038 1.17236,-15.058843 1.98716,-15.062396 0.45582,-0.0016 2.23995,-2.679815 3.96473,-5.950725 9.74088,-18.472845 21.2513,-29.829823 28.41148,-28.032735 2.80997,0.705264 4.06355,0.379759 4.06355,-1.055111 0,-1.674659 0.38246,-1.687219 1.98236,-0.06518 1.58876,1.610762 1.38491,2.450889 -1.02657,4.231105 -1.65494,1.221711 -3.59651,1.858163 -4.31464,1.414334 -2.23389,-1.380617 -10.0477,3.566647 -14.14129,8.953459 -2.15019,2.829491 -4.67408,5.923606 -5.60863,6.875777 -0.93455,0.952172 -1.72409,2.088055 -1.75454,2.524175 -0.0305,0.436121 -2.01966,5.074866 -4.42048,10.308321 -4.50754,9.825861 -6.10987,16.651903 -3.9088,16.651903 0.69351,0 1.69302,-1.36138 2.22111,-3.025285 0.52812,-1.663906 2.00351,-3.425645 3.27868,-3.914973 4.4215,-1.696686 2.79706,8.257048 -2.04275,12.516838 l -4.36122,3.83857 3.73795,0.0501 c 2.66073,0.0357 3.47486,0.73567 2.82508,2.428977 -0.50207,1.30836 -0.24399,2.37884 0.57351,2.37884 0.81749,0 1.17362,0.89207 0.79143,1.98237 -0.7255,2.06958 -2.09004,18.79467 -2.2719,27.84678 -0.0712,3.54485 -0.69957,4.88054 -1.93636,4.11616 -1.19371,-0.73776 -1.39778,-0.43072 -0.58635,0.88219 0.68451,1.10757 1.45128,14.242 1.70392,29.18764 0.25263,14.94562 0.99116,33.59673 1.64117,41.44693 0.65002,7.85018 1.24006,17.6629 1.31121,21.80605 0.0712,4.14316 0.52421,7.53301 1.00683,7.53301 0.4826,0 0.92916,1.60572 0.99232,3.56826 0.17005,5.28315 1.62654,17.27413 2.6487,21.80607 0.49181,2.1806 1.23102,7.17617 1.64266,11.10127 0.41165,3.92509 1.1242,8.207 1.58344,9.51537 0.45924,1.30836 1.24725,5.21126 1.75113,8.67313 0.50387,3.46183 1.92417,10.24153 3.15618,15.06599 1.23203,4.82447 2.65998,13.05365 3.17322,18.28711 1.44157,14.69913 2.44871,19.8237 3.89594,19.8237 0.73098,0 1.77364,-1.60572 2.31704,-3.56826 z M 395.35754,216.4198 c -0.43402,-1.13103 -0.94685,-10.7624 -1.13965,-21.40305 -0.1928,-10.64064 -0.70736,-19.35084 -1.14349,-19.35598 -0.43612,-0.005 -0.83485,-3.21953 -0.8861,-7.14309 -0.0513,-3.92356 0.57139,-7.13372 1.3836,-7.13372 0.84004,0 0.78207,-0.85472 -0.13456,-1.98238 -1.92448,-2.36779 -3.35066,-37.66502 -1.52185,-37.66502 0.69873,0 0.53163,-1.38039 -0.3713,-3.06753 -2.21566,-4.14006 -2.11316,-15.96322 0.13849,-15.96322 1.29677,0 1.28583,-0.59556 -0.0402,-2.19343 -1.00122,-1.206394 -2.15304,-9.591824 -2.55962,-18.634279 -0.40656,-9.04246 -1.03962,-18.406904 -1.40679,-20.809869 -0.36717,-2.402964 -0.0164,-3.966563 0.77953,-3.474665 0.79591,0.491898 1.50844,-0.0398 1.58341,-1.181604 0.075,-1.141781 0.84312,0.06502 1.70699,2.681719 0.86388,2.616727 1.87561,15.819308 2.24826,29.339064 0.37267,13.519764 0.76066,24.938214 0.8622,25.374334 0.26074,1.11988 1.17868,22.10104 2.18559,49.95571 0.47295,13.08365 1.21965,30.74656 1.65934,39.25092 0.53333,10.31534 0.24118,15.46248 -0.8776,15.46248 -0.92239,0 -2.03215,-0.92538 -2.46616,-2.05639 z M 363.7393,99.137546 c 2.84288,-19.597595 4.24683,-25.034615 6.33962,-24.551219 0.87225,0.201473 1.40522,0.908339 1.18439,1.57083 -0.22084,0.662493 -0.79245,4.230757 -1.27029,7.929477 -0.47782,3.698722 -1.12974,8.152262 -1.44869,9.896752 -0.31898,1.74448 -0.63941,4.42068 -0.7121,5.94711 -0.0726,1.526424 -1.13978,2.775314 -2.37134,2.775314 -1.41823,0 -2.04943,-1.30823 -1.72159,-3.568264 z m -0.79692,-30.960631 c 0,-10.060733 18.13271,-30.808022 24.71727,-28.281293 3.41113,1.308983 0.54083,5.005245 -4.95863,6.385514 -2.14482,0.538316 -3.89967,1.959294 -3.89967,3.157708 0,1.198429 -1.07049,2.589737 -2.37885,3.091815 -1.7337,0.665283 -2.38077,3.399367 -2.38594,10.081522 l -0.006,9.168665 -5.54351,0.283733 c -5.00176,0.255964 -5.54432,-0.12449 -5.54432,-3.887664 z m 68.92275,263.868815 c 5.65492,-12.36869 8.83538,-39.07172 8.19967,-68.84407 -0.24768,-11.59905 0.17444,-21.47533 0.93803,-21.94724 0.79008,-0.48833 0.77911,-1.65147 -0.0255,-2.69925 -0.77763,-1.01263 -1.55933,-5.05262 -1.73714,-8.9777 -0.17782,-3.9251 -0.58724,-9.27749 -0.90984,-11.89422 -1.1621,-9.42661 -1.28486,-28.93976 -0.19317,-30.70616 0.61346,-0.99257 0.30502,-1.80471 -0.6854,-1.80471 -1.0725,0 -1.68957,-2.40513 -1.52583,-5.94711 0.15108,-3.27091 0.11209,-6.30393 -0.0869,-6.74005 -0.19901,-0.43611 -0.57916,-5.4317 -0.8448,-11.10126 -0.84278,-17.98841 -1.72028,-26.74802 -6.0838,-60.73217 -1.62518,-12.657164 -1.61501,-15.746532 0.0549,-16.681036 4.28681,-2.399016 -4.5909,-19.326439 -10.13587,-19.326439 -1.26476,0 -5.47183,-2.140958 -9.34909,-4.757686 -3.87725,-2.616727 -7.41567,-4.757686 -7.86314,-4.757686 -1.45662,0 0.99097,21.191593 3.43327,29.725741 2.96908,10.374852 5.00112,30.449866 4.81668,47.584796 -0.0773,7.19497 0.216,13.084 0.65212,13.08676 0.43612,0.003 1.01101,7.67536 1.27754,17.05026 0.39842,14.01476 1.15937,36.17401 1.77647,51.73265 0.10061,2.53595 0.48709,2.66302 2.6472,0.87029 2.06996,-1.71793 2.32872,-3.9733 1.42454,-12.4165 -1.00139,-9.3507 -0.86692,-10.11978 1.43531,-8.2091 1.39711,1.1595 2.5402,3.09129 2.5402,4.29283 0,2.72571 3.12691,2.9178 3.29314,0.2023 0.0668,-1.0903 0.39414,-3.40968 0.72757,-5.15416 1.63457,-8.55211 0.81288,-34.22223 -1.68194,-52.54493 -0.37204,-2.73244 -1.38409,-10.93946 -2.24899,-18.23781 -0.86489,-7.29835 -1.89417,-14.78502 -2.28729,-16.63703 -0.39311,-1.852 -1.11062,-5.85813 -1.59443,-8.902484 -0.48383,-3.04437 -1.70633,-7.59513 -2.7167,-10.11282 -1.01034,-2.517684 -1.94715,-6.225065 -2.08181,-8.238613 -0.13473,-2.013532 -1.18787,-4.24381 -2.34048,-4.956162 -2.96821,-1.834452 -0.65009,-8.358146 2.74049,-7.712274 1.4519,0.276581 2.87569,2.279709 3.16396,4.451419 0.28828,2.171694 2.50021,12.512368 4.9154,22.97928 2.41522,10.466914 4.47919,21.171714 4.5866,23.788434 0.25076,6.10878 1.76686,19.95696 2.71461,24.79557 0.88876,4.53746 2.56193,25.83311 2.9736,37.84731 0.33186,9.68513 -3.11972,25.52688 -5.95514,27.33242 -1.00636,0.64083 -1.20711,1.17607 -0.44615,1.18943 0.761,0.0126 0.56405,1.01181 -0.43767,2.21878 -1.82419,2.19802 -2.35008,31.63458 -1.59278,89.15224 0.1849,14.04264 -0.14086,26.30385 -0.72377,27.24713 -0.58298,0.94326 -0.33466,2.16329 0.55182,2.71115 0.88646,0.54787 1.61175,3.18235 1.61175,5.8544 0,4.16488 0.3437,4.57304 2.40811,2.85971 1.32446,-1.09919 3.42358,-4.2196 4.66471,-6.93423 z m -21.74234,-6.12511 c -0.21807,-1.09031 0.674,-1.98237 1.98236,-1.98237 4.82213,0 6.34215,-7.31444 6.09702,-29.33906 -0.034,-3.05285 -0.15594,-20.93304 -0.27089,-39.73375 -0.17961,-29.3601 -0.54945,-34.20812 -2.62115,-34.36037 -2.08439,-0.15327 -2.44723,4.59795 -2.67119,34.97606 -0.28257,38.33056 -1.34424,53.48223 -4.47687,63.89114 -1.12178,3.72741 -1.64505,7.17165 -1.16279,7.65391 1.59446,1.59446 3.52672,0.91054 3.12351,-1.10556 z M 283.14505,245.13907 c -0.50624,-1.26512 -0.88204,-0.88934 -0.95813,0.95814 -0.0688,1.67179 0.30596,2.60847 0.83294,2.0815 0.52698,-0.527 0.5833,-1.89483 0.12513,-3.03964 z M 360.49581,140.8769 c 0.50184,-0.81198 0.30606,-1.85106 -0.43502,-2.30909 -0.74111,-0.45801 -1.34746,0.20632 -1.34746,1.47631 0,2.6741 0.5001,2.90773 1.78248,0.83278 z M 64.106336,1014.7967 c -4.884416,-1.9745 -0.980321,-3.0692 11.358137,-3.1847 6.298051,-0.059 13.359807,-0.5863 15.692818,-1.1718 3.165098,-0.7944 3.931927,-0.5632 3.020957,0.9108 -0.943149,1.526 -0.36563,1.5092 2.538765,-0.074 2.0678,-1.127 6.614257,-2.2307 10.103237,-2.4527 10.12358,-0.6442 25.37432,-2.0283 25.37432,-2.3029 0,-0.1385 6.06605,-0.5323 13.48012,-0.8754 20.43212,-0.9454 28.08328,-1.6784 30.02101,-2.876 0.96871,-0.5987 5.53948,-0.9135 10.15729,-0.6996 4.61782,0.2139 9.06367,0.046 9.87967,-0.3723 0.81599,-0.4186 3.68407,-0.9407 6.37348,-1.1602 3.54075,-0.2889 4.88985,0.2827 4.88985,2.0717 0,1.3588 -0.33172,2.1389 -0.73715,1.7335 -0.40543,-0.4055 -2.07018,-0.024 -3.69943,0.8482 -1.62928,0.872 -14.55961,1.9432 -28.73409,2.3806 -14.17448,0.4373 -27.91275,1.127 -30.52947,1.5325 -7.46089,1.1562 -16.62205,2.1643 -26.96023,2.9668 -5.23346,0.4063 -12.72681,1.1035 -16.651905,1.5493 -15.738459,1.7877 -32.678917,2.3477 -35.577379,1.176 z m 525.265774,-5.8141 c -2.48053,-2.5378 0.9565,-3.9022 9.83016,-3.9022 5.94781,0 9.57738,-0.7131 10.08952,-1.9823 0.43996,-1.0903 0.85625,-1.2549 0.92511,-0.3657 0.0775,1.0013 4.64952,1.3882 12.01099,1.0165 12.40222,-0.6263 18.25503,0.4226 15.73611,2.8199 -1.83887,1.7501 -47.04566,3.9958 -48.59189,2.4138 z m 2.80156,-11.94391 c 0.80155,-1.2969 0.56135,-1.5606 -0.70742,-0.7764 -2.5422,1.5711 -10.06034,-0.369 -8.87317,-2.2898 0.50973,-0.8248 3.92877,-1.1268 7.59786,-0.671 10.85674,1.3485 24.90885,1.5659 24.90885,0.3853 0,-0.603 1.2489,-1.0342 2.77532,-0.9581 2.60919,0.13 30.62057,-1.5145 46.38744,-2.7234 19.78344,-1.5168 47.77978,-1.2153 49.52848,0.5334 2.06241,2.0624 2.40776,2.0366 -38.4272,2.8678 -28.05303,0.571 -41.21272,1.2803 -49.16277,2.6499 -3.05285,0.526 -12.23098,1.404 -20.39584,1.9512 -11.59316,0.7769 -14.57934,0.5647 -13.63155,-0.9689 z m -523.235618,-1.1835 c -1.664603,-2.6934 1.301815,-3.4685 10.342878,-2.7025 4.67971,0.3964 13.147312,0.071 18.81689,-0.7238 5.66958,-0.7945 14.59024,-1.8394 19.8237,-2.3219 13.53636,-1.2481 23.28697,-2.4112 26.96023,-3.2159 8.4025,-1.84079 27.75317,-2.70965 27.75317,-1.24615 0,0.87005 -3.38985,2.08635 -7.53301,2.70265 -4.14316,0.6164 -8.84737,1.3685 -10.45386,1.6713 -1.60646,0.3028 -10.88395,1.3569 -20.61664,2.3425 -9.73269,0.9856 -20.19358,2.1074 -23.24642,2.4928 -15.282901,1.9295 -40.89448,2.5421 -41.846938,1.001 z M 603.07343,980.43894 c -2.68944,-1.3524 -4.88986,-3.50081 -4.88986,-4.77426 0,-1.89294 0.54473,-1.82239 2.98577,0.38673 2.28427,2.06724 6.22759,2.75204 16.78405,2.91474 7.58906,0.11712 14.99882,-0.38155 16.46612,-1.10783 4.46778,-2.21151 57.25426,-7.85099 58.82104,-6.28419 0.79468,0.79468 0.82046,1.80735 0.058,2.27857 -1.68964,1.04426 -24.27537,3.87628 -33.19646,4.16249 -3.59663,0.11539 -8.23538,0.5455 -10.30832,0.95579 -3.94117,0.78005 -12.10071,1.59116 -30.72924,3.05469 -8.26489,0.64931 -12.35062,0.24391 -15.9911,-1.58673 z M 69.948172,976.37625 c -6.219612,-2.31063 -3.859974,-4.16208 4.304677,-3.37755 4.330113,0.41606 15.713497,-0.0644 25.296382,-1.06784 26.875369,-2.81401 49.297249,-3.70751 49.297249,-1.96445 0,2.08468 -7.3866,3.05291 -38.06149,4.98909 -14.392007,0.90842 -28.665069,1.898 -31.717918,2.19903 -3.052849,0.30104 -7.156354,-0.0492 -9.1189,-0.77828 z M 609.49561,963.76051 c -1.30918,-2.11833 0.26476,-4.149 3.96607,-5.11693 2.75697,-0.72095 2.9458,-0.41168 1.45238,2.37881 -1.26399,2.36179 -1.24307,2.91484 0.0792,2.09755 0.98776,-0.61048 5.51929,-1.44743 10.07006,-1.85991 4.55076,-0.41247 16.83327,-1.79728 27.29447,-3.07737 12.70893,-1.55514 19.20028,-1.78756 19.56267,-0.70044 0.29826,0.89484 1.37345,1.1513 2.38924,0.56991 1.01579,-0.5814 1.33135,-0.48659 0.70121,0.21072 -0.63016,0.69728 -3.84159,1.4704 -7.13654,1.71803 -3.29496,0.24763 -10.62955,1.20866 -16.29913,2.1356 -14.72678,2.40781 -40.97396,3.43326 -42.07979,1.64403 z M 56.071587,960.67534 c -1.262026,-2.042 0.852688,-5.58613 2.180606,-3.65458 1.112108,1.61764 33.242244,-0.29869 44.603317,-2.66024 10.5731,-2.19779 21.33856,-2.62071 21.925,-0.86136 0.28348,0.85045 -0.3511,1.8351 -1.41017,2.18812 -1.26534,0.42178 -1.47363,-0.10848 -0.60747,-1.54625 1.0394,-1.72542 0.83455,-1.80683 -0.96866,-0.38504 -3.83763,3.02582 -21.796424,5.37263 -44.706478,5.84209 -7.630442,0.15642 -13.874905,0.81956 -13.876586,1.47373 -0.0047,1.77179 -6.005454,1.43855 -7.139559,-0.39647 z m 72.967183,-7.95535 c 0.54787,-0.88646 1.66047,-1.20118 2.47245,-0.69934 2.1997,1.35948 1.78954,2.31111 -0.99614,2.31111 -1.35984,0 -2.02417,-0.72529 -1.47631,-1.61177 z m 491.36897,-9.88598 c -0.88658,-1.42994 -1.49284,-1.28002 7.95073,-1.96615 6.78108,-0.4927 7.3462,-0.3066 4.69909,1.54752 -3.14259,2.20113 -11.37572,2.47363 -12.64982,0.41863 z"
       id="path2996"
       style="fill:#000000" />
    <path
       d="m 445.96974,293.80445 c -4.59687,1.50193 -2.23998,9.68052 -3.7576,13.43388 -2.11705,12.76399 -4.54639,27.77069 -14.92793,36.40887 -7.20098,0.99817 -6.02162,-15.32019 -14.58705,-10.40043 -5.83996,4.80579 -6.80512,6.33184 -5.59684,-1.71872 -3.06574,-3.39261 -5.02285,5.38198 -7.35963,6.52231 -8.87086,5.7831 -2.92931,19.59606 -7.84439,27.19096 -3.38847,-3.83741 0.21066,-14.09731 -5.86126,-15.15995 -2.91851,2.99489 -6.11097,4.45435 -9.03428,0.96953 -3.17291,-0.10336 -1.95728,9.10121 -4.97987,3.43743 -1.43399,-3.61987 -4.78142,-1.59854 -3.30522,1.93907 -0.49142,4.70244 3.84733,11.84555 0.79325,15.60065 -2.00135,-2.46214 -6.23682,-4.22623 -5.55277,0.92546 0.44587,1.82678 -0.16354,11.47549 -3.26115,6.5223 0.18536,-2.69188 -5.92113,-9.26745 -6.47824,-3.74592 -0.68379,8.01515 4.04487,17.18753 1.58651,24.54679 -4.44475,-3.13037 -2.97162,-11.42259 -5.0633,-16.20387 -2.67785,-9.04361 -2.25663,-19.86204 -7.09992,-27.86576 -9.01331,1.33983 -2.89466,-14.40711 -12.16322,-14.19042 -7.14887,-3.09059 -2.97449,6.0022 -2.82046,9.29869 -0.0298,4.48918 4.18301,11.10782 1.895,14.89553 -3.85793,-2.65769 -5.4249,1.91088 -6.3901,4.23069 -0.74058,-3.07978 -5.51886,-6.10447 -5.28835,-0.83732 1.2031,4.58806 -1.48325,7.12508 -5.42057,7.88846 -4.87688,6.42222 5.19609,13.12559 2.37976,20.36017 -0.65075,5.90459 -5.28291,-1.55505 -4.75952,-4.05441 -7.4429,-31.24926 -10.95755,-63.68657 -21.63819,-94.04459 -5.05755,-6.15897 -13.31563,2.31538 -18.64145,4.40696 -21.59283,13.92929 -27.57097,41.20841 -35.12984,64.07489 -7.68435,33.18205 -6.53639,67.96112 -2.50563,101.58286 5.26219,34.46783 14.80595,68.02555 26.48585,100.83132 5.5285,14.63681 7.36807,30.92427 13.30903,45.08323 4.71529,-6.98285 2.90512,-17.22546 4.22299,-25.4672 3.7274,-33.34407 -9.39569,-65.2435 -16.01203,-97.36794 -3.91714,-16.35818 -9.66748,-32.49247 -7.73381,-49.56526 0.92461,-16.29413 -2.03635,-33.78856 3.70185,-49.31392 2.82216,-0.23904 2.39426,-4.27363 3.21708,-5.5087 -0.66681,15.56819 -4.51597,31.31219 -3.68652,47.15442 -0.10197,46.15494 21.29117,89.0167 24.6196,134.67688 1.58536,47.40884 -15.20983,92.51511 -29.38936,136.9557 -8.31235,22.53806 -23.6406,41.15665 -38.26699,59.78481 -13.44582,22.55908 -24.21304,46.92074 -32.31433,71.90174 -5.16534,23.06699 -11.55917,46.3959 -11.6577,70.16509 1.74924,16.0787 7.33404,32.34973 16.79053,45.47986 18.14591,20.71887 45.8656,28.46527 69.18932,41.6458 28.92036,1.38396 58.07271,-6.02265 86.72904,-2.11534 -2.99022,0.22288 -5.14814,4.08437 -0.92546,4.45103 11.56178,2.53122 28.61456,1.10597 33.71327,-11.28183 -2.91353,-9.57346 -10.27194,-17.58764 -13.30903,-27.36724 -10.68938,-25.5715 -18.48463,-52.83361 -16.74646,-80.8237 -0.15105,-14.23184 -1.39881,-30.21121 9.56311,-41.20511 6.05158,-11.723 -0.18918,-25.10913 -8.54951,-33.71327 -0.46072,-4.35398 6.80301,0.0115 7.44777,2.29162 5.67277,6.22269 7.14478,15.08888 8.4173,22.65179 7.03485,-4.46914 13.36655,-11.86717 20.40424,-15.33623 -12.15754,17.15128 -34.6286,30.20777 -34.02176,53.76495 -1.7432,37.46007 5.19212,76.42181 25.47587,108.39754 17.51557,20.2232 41.47541,39.6599 70.02302,37.0323 29.02601,-1.5182 57.8418,-5.6904 86.72904,-8.7699 20.215,-11.06619 42.41656,-21.49396 54.60228,-42.13058 7.40218,-9.18146 12.33268,-20.17193 17.8482,-30.23176 5.26521,-4.90692 2.56317,-14.51455 3.52557,-21.10936 0.18933,-33.29151 -9.75077,-66.47359 -29.50714,-93.41676 -12.05082,-17.45334 -23.0873,-36.44747 -40.69579,-48.88408 -5.69697,-7.8475 -10.41917,-16.58734 -16.74413,-24.1719 -11.3644,-17.43233 -21.87588,-37.07304 -19.85044,-58.59077 -0.58547,-43.66126 1.50407,-87.29295 4.88766,-130.79591 2.56199,-45.50383 -4.51565,-90.6866 -11.34912,-135.51698 -1.1456,-10.20638 -5.86653,-21.46984 -4.4951,-31.24537 6.27975,14.29059 7.04697,31.03468 10.32524,46.41267 9.16593,50.1017 11.94824,101.27063 7.43974,152.03043 -0.50885,20.80551 -3.70255,42.14799 -0.049,62.71354 3.488,1.88073 2.36921,-6.9878 3.27915,-8.70133 5.3471,-45.11331 11.16521,-90.22759 14.47323,-135.53628 0.35233,-23.73292 4.09297,-47.23716 4.72313,-70.91033 -1.33746,-33.56036 -4.04665,-69.38142 -24.02801,-97.74496 -8.66644,-13.56089 -16.70186,-29.3438 -33.1303,-34.68429 -8.24848,-3.47574 -16.86617,-7.26722 -25.86887,-7.93253 z m -88.57997,206.02553 c 6.10901,7.00642 7.10496,18.16667 10.79706,26.79434 10.57831,31.63919 16.22096,64.94228 18.24483,98.18714 -0.41067,35.18224 -3.20614,70.62902 -10.57671,105.062 -2.59055,5.82055 -0.67588,13.52848 -3.43743,18.7296 -4.56741,-3.51518 0.79448,-11.27919 0.66104,-16.12949 5.08228,-38.983 10.2077,-78.32274 8.93889,-117.70676 -3.21649,-31.85373 -9.01806,-63.67829 -20.19591,-93.76475 -1.32362,-6.8336 -5.85177,-14.3504 -4.60804,-21.12801 l 0.13221,-0.0441 0.0441,0 z"
       id="path3012"
       style="color:#000000;fill:#e9c6af;fill-opacity:1;fill-rule:nonzero;stroke:none;stroke-width:1;marker:none;visibility:visible;display:inline;overflow:visible;enable-background:accumulate" />
    <path
       d="m 401.48782,55.157322 c -1.08891,13.797765 3.08677,27.725503 5.38977,41.356483 3.47716,31.258525 3.74839,62.802785 5.39081,94.201515 0.63373,8.61128 0.30431,17.84178 1.7797,26.098 7.27662,-3.64285 3.46384,-12.77412 3.86408,-19.09801 -0.46935,-1.66028 0.25828,-4.85463 1.67004,-1.79058 0.73571,1.84571 3.2884,7.5793 5.39848,3.85218 1.85865,-12.50014 0.75257,-25.52631 0.90369,-38.22321 -1.00677,-22.39155 -4.22198,-44.69659 -8.3639,-66.708055 -2.21303,-6.800776 -2.90287,-14.45205 -6.32083,-20.644439 -3.27695,-2.38853 0.69761,-9.798764 3.90644,-5.886785 4.64037,17.851679 8.50688,36.236649 10.95058,54.619799 2.28137,23.48839 6.7393,47.19514 4.05122,70.82026 -0.70793,5.81338 -3.14107,11.10177 -5.34422,16.30396 -2.89415,22.61381 -1.41734,45.53489 -1.95322,68.28127 0.27555,18.18818 -0.53299,36.6245 0.97661,54.66301 1.42062,1.65369 -0.64039,7.91993 2.87557,6.67349 9.47753,-9.94618 10.40864,-24.83265 12.1886,-37.83518 2.28463,-20.83824 0.7417,-42.07113 2.54193,-62.78272 -3.4654,-17.65651 -3.33743,-35.83257 -3.47239,-53.71352 -2.71639,-6.52044 -1.41804,-14.54456 -2.4332,-21.61647 -1.06573,-25.76562 -5.61015,-51.25663 -7.03449,-76.966831 0.25093,-3.079045 3.59066,-5.654021 1.19546,-9.017886 -2.2291,-6.840175 -6.85923,-13.271744 -14.22978,-15.006765 -4.78222,-2.195212 -9.11856,-5.678235 -13.93095,-7.579516 z"
       id="path3036"
       style="color:#000000;fill:#ff7f2a;fill-opacity:1;fill-rule:nonzero;stroke:#000000;stroke-width:1;stroke-linecap:round;stroke-linejoin:miter;stroke-miterlimit:4;stroke-opacity:0.98039216;stroke-dasharray:none;stroke-dashoffset:0;marker:none;visibility:visible;display:inline;overflow:visible;enable-background:accumulate" />
    <path
       d="m 364.34953,29.168658 c -4.50814,0.217671 -11.47619,1.022378 -11.77357,6.619242 -7.65955,6.826545 -18.35266,11.317295 -22.27212,21.621049 -1.8797,6.706242 -4.8689,13.108084 -5.45274,20.291775 -2.27739,30.953676 -2.32445,62.101926 -0.8977,93.098326 0.20458,1.46104 0.0493,7.23133 2.57964,5.59349 2.84882,-8.83769 1.8906,-18.65877 4.91018,-27.58922 3.02229,-16.78934 5.25719,-34.21076 10.03737,-50.376773 2.15215,-0.233355 7.5679,-0.600828 6.1852,3.011213 2.46589,6.89403 -0.44914,14.86992 -0.35267,22.10935 -1.01904,3.82817 0.50806,9.2408 -2.08886,12.28901 -2.8582,0.24344 0.37357,4.46088 -0.56969,6.04955 2.45021,41.44055 1.88261,83.22893 9.51249,124.1946 3.87237,25.75946 9.87356,51.14684 13.24794,76.98695 -0.0136,3.74337 4.05161,1.40002 4.2591,-1.00374 1.30916,-5.66295 3.84247,2.32136 6.89052,2.82132 3.44587,-0.9392 2.5672,-6.54145 3.0606,-9.41315 -0.2579,-18.25668 0.39697,-36.7206 -3.77276,-54.56083 -1.42222,-9.23035 -3.63178,-18.27371 -5.12036,-27.33901 -0.90837,-7.19802 -7.44129,2.67994 -6.80067,-1.25233 3.42728,-24.64197 -3.67526,-49.107 -5.76105,-73.56983 -1.93242,-21.20988 -6.47452,-42.26966 -6.34653,-63.61223 -0.46019,-2.24439 1.73717,-5.677 2.52291,-1.76332 2.11375,5.67302 0.4448,12.28868 2.27875,17.9045 2.40491,0.63874 1.65285,-4.37061 2.27876,-5.83252 0.98383,-6.43044 1.04618,-13.59204 2.7128,-19.61358 3.29083,0.6589 1.77806,6.41487 1.11225,8.76236 -2.80958,1.64897 3.26919,4.89364 -0.59681,5.64263 -2.03278,0.93033 0.85553,4.23016 -0.001,6.0208 0.85277,31.85993 -0.52812,64.09655 6.66254,95.40436 2.51969,10.85973 4.3272,22.03159 6.76705,32.80439 2.23873,0.65941 2.62336,-4.55459 3.63516,-5.96817 6.67079,-19.52689 1.70295,-40.31453 0.71883,-60.31872 -2.61387,-29.95907 -5.32716,-59.91535 -7.98914,-89.862115 -0.25418,-2.812547 0.2826,-12.296401 1.87183,-4.910176 1.78476,9.717041 2.69501,19.735401 3.98712,29.589111 2.10967,38.47299 11.27406,76.73056 7.81358,115.38314 -1.26618,11.20259 -10.81678,20.63126 -7.50825,32.43752 3.94785,21.8829 7.10629,43.94544 7.2641,66.22716 0.39544,1.92218 -0.43746,8.60827 3.0926,6.89053 2.93519,-8.22291 2.16842,-17.56182 3.85734,-26.19142 1.18517,-8.80297 2.28269,-17.87302 4.55235,-26.30134 -2.94012,-9.76966 -1.259,-20.65095 -1.97834,-30.84446 0.15249,-13.05738 -0.72414,-26.43765 0.51342,-39.30866 2.47848,0.0814 1.3725,5.11058 2.03461,6.91765 1.00565,29.00286 1.18451,58.08381 -0.0271,87.08102 0.1285,4.459 -2.33488,9.92801 -0.59682,13.97094 3.39913,-2.04987 3.45288,-7.70726 4.75635,-11.29545 2.66457,-15.08623 5.23187,-30.38507 5.38954,-45.72769 -0.75675,-29.09207 1.00863,-58.20722 -1.18312,-87.26721 -1.2802,-19.01837 -0.3776,-38.34929 -3.29301,-57.16248 -0.27608,-2.14658 -1.7059,-0.5686 -2.25162,-0.0271 -0.0523,-2.87927 6.55987,-6.16953 0.81384,-6.80914 -3.91416,-1.42531 0.75096,-4.10905 0.51543,-6.34796 -0.37081,-1.87609 -4.18729,-5.82811 -0.27128,-5.58842 1.34071,-2.51871 -1.51659,-6.28899 -1.22593,-9.212037 -4.19025,-21.573767 -3.40279,-44.855258 -13.77588,-64.711874 -3.26169,-4.225296 -9.68459,-1.937738 -13.88955,-4.666023 -3.22439,-1.041353 -6.65912,-1.408981 -10.03738,-1.275018 z m 11.9906,8.246925 c 4.39786,1.438566 -1.19123,5.280948 -3.52665,5.154328 -9.84477,0.775513 -15.2434,10.509416 -21.05136,17.30769 -4.76372,8.049073 -8.25078,17.046874 -10.55281,26.070047 -0.54114,3.151988 3.03441,2.433035 3.71654,0.08138 0.38812,-1.877457 4.89696,-5.841604 4.96444,-1.817579 -0.0985,4.926427 -3.90172,10.656033 -8.11129,12.397515 0.0647,-2.262219 -1.3061,-3.558563 -3.52664,-3.662285 -0.37663,-6.712646 -0.68851,-14.421612 1.87183,-20.807208 7.72538,-11.707185 14.01077,-26.569634 27.45358,-32.607905 2.41126,-1.435094 7.56806,0.494043 8.76236,-2.115987 z m 9.60332,3.173981 c 3.20341,-0.634066 1.9343,2.922325 -0.10851,3.526645 -5.72796,2.700201 -11.16132,7.531328 -11.8007,14.133709 -0.70286,4.420206 -0.65809,8.911028 -0.70533,13.374124 -2.99792,-0.460356 -10.6776,1.737207 -9.8746,-3.608029 2.09441,-11.095219 10.3241,-20.726029 19.74921,-26.612608 0.91743,-0.468153 1.71016,-0.684516 2.73993,-0.813841 z m 3.74367,17.009281 c 2.89871,0.302645 1.28749,5.330659 2.25163,7.216059 2.95348,38.931826 3.47103,78.009026 5.438,116.999706 0.10056,11.67521 1.70973,23.57494 0.72006,35.13435 -2.31262,1.92122 -2.41022,-3.37327 -2.60429,-4.72028 -0.99913,-16.04846 -2.25924,-32.15462 -2.52291,-48.20653 2.30777,-3.59707 -0.39877,-7.76662 -0.17099,-11.79845 -0.83775,-14.64437 -0.82611,-29.35703 -2.21627,-43.94967 -0.41095,-3.36837 3.30166,-5.97443 1.11225,-9.19641 -2.23275,-13.330634 -3.33098,-27.090729 -3.0926,-40.529293 0.13613,-0.515253 0.58757,-0.935201 1.08512,-0.949482 z m -19.69496,17.633227 c 0.78101,5.380005 -1.2178,11.798182 -1.65481,17.497586 -1.40244,2.691571 0.69922,9.142832 -3.52664,9.250662 -1.70875,-4.292868 0.93011,-9.646556 1.25134,-14.183639 1.22887,-3.971316 0.92206,-9.621395 3.93011,-12.564609 z"
       id="path3038"
       style="color:#000000;fill:#ff7f2a;fill-opacity:1;fill-rule:nonzero;stroke:#000000;stroke-width:1;stroke-linecap:round;stroke-linejoin:miter;stroke-miterlimit:4;stroke-opacity:0.98039216;stroke-dasharray:none;stroke-dashoffset:0;marker:none;visibility:visible;display:inline;overflow:visible;enable-background:accumulate" />
    <path
       d="m 329.73415,19.59246 c -14.25142,3.109408 -26.63477,12.465501 -36.81275,22.624786 -7.47917,7.897613 -7.83515,19.695142 -10.63419,29.406796 -3.262,8.093402 -1.06438,17.732497 -2.46805,26.391818 -5.64773,43.48044 -3.01836,87.51048 0.17798,131.081 0.62914,2.00227 -0.15991,6.87367 2.29007,7.24865 2.52922,-14.16161 1.36766,-28.94736 1.8447,-43.35061 0.42032,-10.73615 -0.80639,-21.86727 1.27502,-32.36376 2.11786,-0.76468 0.62118,4.72506 1.30136,5.82904 1.3075,24.67689 1.0852,49.64367 2.79498,74.17156 -3.21284,5.42353 1.56926,12.16941 -0.24416,17.68748 -2.12576,-1.22772 -3.04134,-6.18903 -5.8054,-5.83253 2.22277,13.80623 5.53522,27.53043 9.06706,41.08912 7.18836,25.0164 13.31964,50.34995 17.46417,76.04976 -0.12906,2.46828 3.08792,5.11073 3.49951,1.41066 0.69809,-7.48971 -2.48147,-15.75019 -0.2984,-22.84181 3.20993,2.11921 1.301,8.5175 4.99156,9.73897 2.86758,-0.4307 9.34593,-0.23042 7.08041,-4.91018 -12.66732,-39.26386 -23.70515,-79.46028 -30.19537,-120.339 -2.52204,-18.94403 -5.18749,-38.67076 -0.10665,-57.43105 2.4775,28.89167 2.02564,58.17859 8.68493,86.58282 3.54403,15.31425 8.41915,30.28195 11.90526,45.61212 3.75407,8.95322 4.54937,19.31324 8.87086,27.96901 4.09855,0.9985 6.23937,-4.35672 4.09634,-7.54159 -3.64159,-17.45102 -11.08902,-33.83278 -13.75392,-51.4619 -5.86756,-13.80023 -7.3161,-29.28855 -9.00651,-44.16445 -3.01313,-40.28558 -2.56499,-80.75076 -5.18145,-121.04532 0.45005,-2.1477 -1.77638,-4.74042 -2.6043,-1.43778 -5.39382,14.87229 -7.15209,31.24827 -10.52567,46.68736 -1.93682,2.91682 -3.21982,-1.20462 -2.26967,-3.0089 2.06275,-19.25413 5.63212,-38.56354 14.5858,-55.88608 6.61441,-17.777158 6.05407,-37.494429 11.09536,-55.585356 5.31298,-7.448263 14.73604,-11.499195 23.43863,-13.211356 1.72529,-0.545234 7.12183,1.638513 3.68942,3.255365 -9.08832,2.039593 -19.37937,6.830487 -23.33012,15.815647 -9.58495,36.649613 -8.3083,74.93615 -7.94459,112.49934 1.18895,32.75069 0.54806,65.9031 7.18501,98.1499 6.52661,27.71466 14.19034,55.2994 24.52374,81.81817 0.0726,1.5222 4.46158,5.1684 3.52665,1.60055 -5.22449,-21.85238 -9.57323,-43.89339 -12.52858,-66.16737 -3.79459,-19.4529 -3.66045,-39.48557 -7.62756,-58.86577 3.41329,-11.91318 -0.61159,-24.82231 -0.80368,-37.07949 -1.88045,-31.75554 -3.71154,-63.70413 -1.20379,-95.468114 1.99345,-7.783144 -1.13724,-16.217728 3.39091,-23.33668 3.83887,-9.472856 10.09818,-17.857361 18.9626,-23.133655 3.80845,-3.460151 5.61438,-8.812713 10.49855,-11.122496 -3.60225,-2.696048 -9.42654,-3.45902 -13.86243,-5.208584 -2.96911,-0.690353 -5.94155,-2.101834 -9.03364,-1.926091 z m -32.87918,150.50637 c 0.36129,1.21924 -1.99503,5.27419 -1.13938,1.92609 0.15208,-0.66821 0.54051,-1.50767 1.13938,-1.92609 z"
       id="path3040"
       style="color:#000000;fill:#ff7f2a;fill-opacity:1;fill-rule:nonzero;stroke:#000000;stroke-width:1;stroke-linecap:round;stroke-linejoin:miter;stroke-miterlimit:4;stroke-opacity:0.98039216;stroke-dasharray:none;stroke-dashoffset:0;marker:none;visibility:visible;display:inline;overflow:visible;enable-background:accumulate" />
    <path
       d="m 341.779,117.06351 c -3.98046,13.60624 -5.01457,28.27251 -7.82161,42.28636 -5.22082,27.71466 -5.5873,56.03971 -3.24663,84.07606 1.95103,34.3663 7.70324,68.36514 15.68047,101.81753 2.34565,7.917 2.68255,16.81321 6.45601,24.11083 2.86128,0.75692 0.64393,-4.8693 0.75074,-6.14113 -0.65536,-6.26702 -2.64398,-12.78956 -0.77787,-19.00656 2.74841,6.88366 3.55872,14.5625 5.20859,21.6753 2.80029,-1.07774 7.71857,-1.7025 6.13093,-5.99529 -0.80618,-22.729 -4.33787,-45.25843 -9.75711,-67.31807 -3.95772,-21.29463 -5.94613,-42.86981 -9.07924,-64.2753 -3.70839,-36.90402 -1.59808,-74.07552 -3.30013,-111.03983 0.007,-0.12217 -0.11569,-0.28728 -0.24415,-0.1899 z"
       id="path3042"
       style="color:#000000;fill:#ff7f2a;fill-opacity:1;fill-rule:nonzero;stroke:#000000;stroke-width:1;stroke-linecap:round;stroke-linejoin:miter;stroke-miterlimit:4;stroke-opacity:0.98039216;stroke-dasharray:none;stroke-dashoffset:0;marker:none;visibility:visible;display:inline;overflow:visible;enable-background:accumulate" />
    <path
       d="m 414.86194,220.33996 c -3.10991,2.87738 -0.80298,8.56373 -1.8447,12.37039 -1.54015,28.0306 0.24289,56.42662 -4.7752,84.15714 -0.0481,3.30681 -3.01082,7.83446 -0.84031,10.73675 3.26607,1.44159 3.31462,-3.98176 6.4836,-3.85219 6.32771,-4.99411 3.2606,-14.42104 4.21734,-21.37685 -0.0668,-26.37306 0.3252,-52.79385 -0.93484,-79.13254 -0.38343,-0.99989 -0.89981,-2.99602 -2.30589,-2.9027 z"
       id="path3044"
       style="color:#000000;fill:#ff7f2a;fill-opacity:1;fill-rule:nonzero;stroke:#000000;stroke-width:1;stroke-linecap:round;stroke-linejoin:miter;stroke-miterlimit:4;stroke-opacity:0.98039216;stroke-dasharray:none;stroke-dashoffset:0;marker:none;visibility:visible;display:inline;overflow:visible;enable-background:accumulate" />
    <path
       d="m 359.45429,138.26456 c -1.24607,0.73416 -1.04608,2.93031 -0.42967,4.02044 1.15835,0.23546 1.83191,-1.52021 2.02557,-2.445 -0.14989,-0.66185 -0.86234,-1.58518 -1.5959,-1.57544 z"
       id="path3046"
       style="color:#000000;fill:#ff7f2a;fill-opacity:1;fill-rule:nonzero;stroke:#000000;stroke-width:1;stroke-linecap:round;stroke-linejoin:miter;stroke-miterlimit:4;stroke-opacity:0.98039216;stroke-dasharray:none;stroke-dashoffset:0;marker:none;visibility:visible;display:inline;overflow:visible;enable-background:accumulate" />
    <path
       d="m 342.59503,113.22119 c -0.95957,0.64658 -1.44747,2.32623 -1.11508,3.38618 1.58785,0.16029 0.0138,2.73913 1.22761,3.28387 1.09453,-1.09629 0.51916,-3.17945 0.62404,-4.61379 -0.16093,-0.54364 0.0143,-1.94488 -0.73657,-2.05626 z"
       id="path3048"
       style="color:#000000;fill:#ff7f2a;fill-opacity:1;fill-rule:nonzero;stroke:#000000;stroke-width:1;stroke-linecap:round;stroke-linejoin:miter;stroke-miterlimit:4;stroke-opacity:0.98039216;stroke-dasharray:none;stroke-dashoffset:0;marker:none;visibility:visible;display:inline;overflow:visible;enable-background:accumulate" />
    <path
       d="m 282.65668,244.55564 c -1.04534,0.58199 -0.69206,2.45482 -0.45012,3.43732 1.17485,0.93386 1.3811,-1.57546 1.20715,-2.27108 -0.0708,-0.41879 -0.1995,-1.18936 -0.75703,-1.16624 z"
       id="path3050"
       style="color:#000000;fill:#ff7f2a;fill-opacity:1;fill-rule:nonzero;stroke:#000000;stroke-width:1;stroke-linecap:round;stroke-linejoin:miter;stroke-miterlimit:4;stroke-opacity:0.98039216;stroke-dasharray:none;stroke-dashoffset:0;marker:none;visibility:visible;display:inline;overflow:visible;enable-background:accumulate" />
    <path
       d="m 281.46999,236.40222 c -0.86578,0.60967 0.0531,2.1585 0.37851,2.91559 1.0903,0.49526 0.98736,-1.56544 1.16624,-2.17902 0.15795,-0.88203 -1.00154,-0.75271 -1.54475,-0.73657 z"
       id="path3052"
       style="color:#000000;fill:#ff7f2a;fill-opacity:1;fill-rule:nonzero;stroke:#000000;stroke-width:1;stroke-linecap:round;stroke-linejoin:miter;stroke-miterlimit:4;stroke-opacity:0.98039216;stroke-dasharray:none;stroke-dashoffset:0;marker:none;visibility:visible;display:inline;overflow:visible;enable-background:accumulate" />
    <path
       d="m 325.53989,176.95458 c -0.42655,-0.0952 -0.89695,0.19463 -0.60455,0.65789 0.079,0.43392 0.54046,1.16008 0.98684,0.61344 0.24038,-0.36 0.72108,-0.90363 0.56899,-1.26688 -0.31708,10e-6 -0.63428,-0.0154 -0.95128,-0.004 z"
       id="path3054"
       style="color:#000000;fill:#ff7f2a;fill-opacity:1;fill-rule:nonzero;stroke:#000000;stroke-width:1;stroke-linecap:round;stroke-linejoin:miter;stroke-miterlimit:4;stroke-opacity:0.98039216;stroke-dasharray:none;stroke-dashoffset:0;marker:none;visibility:visible;display:inline;overflow:visible;enable-background:accumulate" />
    <path
       d="m 409.36772,218.02391 c -0.22897,0.73656 -0.24406,1.64391 0,2.38263 0.47489,0.20536 0.54186,-0.67234 0.59566,-1.00017 -0.005,-0.4179 0.0369,-1.44984 -0.59566,-1.38246 z"
       id="path3056"
       style="color:#000000;fill:#ff7f2a;fill-opacity:1;fill-rule:nonzero;stroke:#000000;stroke-width:1;stroke-linecap:round;stroke-linejoin:miter;stroke-miterlimit:4;stroke-opacity:0.98039216;stroke-dasharray:none;stroke-dashoffset:0;marker:none;visibility:visible;display:inline;overflow:visible;enable-background:accumulate" />
    <path
       d="m 299.86434,107.21808 c -0.38127,0.0848 -0.64984,0.61853 -0.18226,0.80014 0.21921,0.19916 0.99062,0.64235 0.89349,0.009 -0.0993,-0.30696 -0.32948,-0.81714 -0.71123,-0.80903 z"
       id="path3058"
       style="color:#000000;fill:#ff7f2a;fill-opacity:1;fill-rule:nonzero;stroke:#000000;stroke-width:1;stroke-linecap:round;stroke-linejoin:miter;stroke-miterlimit:4;stroke-opacity:0.98039216;stroke-dasharray:none;stroke-dashoffset:0;marker:none;visibility:visible;display:inline;overflow:visible;enable-background:accumulate" />
    <path
       d="m 422.81408,327.105 c -0.85747,0.76029 -0.81404,2.47556 0.12891,3.16499 0.52927,-0.11111 0.14816,-0.96807 0.21122,-1.33696 -0.18646,-0.56172 0.1702,-1.40195 -0.28679,-1.83248 l -0.0533,0.004 z"
       id="path3060"
       style="color:#000000;fill:#ff7f2a;fill-opacity:1;fill-rule:nonzero;stroke:#000000;stroke-width:1;stroke-linecap:round;stroke-linejoin:miter;stroke-miterlimit:4;stroke-opacity:0.98039216;stroke-dasharray:none;stroke-dashoffset:0;marker:none;visibility:visible;display:inline;overflow:visible;enable-background:accumulate" />
    <path
       d="m 329.18011,339.20487 c -0.80832,0.31905 -1.12958,1.33475 -1.37802,2.10258 -0.36841,0.94355 0.33285,0.48103 0.82237,0.29783 0.44295,-0.23055 1.43012,0.34343 1.15147,-0.52785 -0.15941,-0.49784 0.14022,-1.748 -0.59582,-1.87256 z"
       id="path3064"
       style="color:#000000;fill:#e9c6af;fill-opacity:1;fill-rule:nonzero;stroke:#e9c6af;stroke-width:1;stroke-linecap:round;stroke-linejoin:miter;stroke-miterlimit:4;stroke-opacity:0.98039216;stroke-dasharray:none;stroke-dashoffset:0;marker:none;visibility:visible;display:inline;overflow:visible;enable-background:accumulate" />
    <path
       d="m 343.25365,352.57607 c -0.73022,0.52279 -0.71925,1.62709 -1.0472,2.40151 0.0207,0.45906 -0.59282,1.06357 -0.25969,1.44804 0.63184,0.19484 1.70823,-0.44672 1.91589,0.5112 0.0672,0.28832 0.64774,0.98147 0.84459,0.47119 -0.37661,-1.5706 -0.41241,-3.29788 -1.18687,-4.73415 -0.0656,-0.0708 -0.16968,-0.11818 -0.26672,-0.0978 z"
       id="path3066"
       style="color:#000000;fill:#e9c6af;fill-opacity:1;fill-rule:nonzero;stroke:#e9c6af;stroke-width:1;stroke-linecap:round;stroke-linejoin:miter;stroke-miterlimit:4;stroke-opacity:0.98039216;stroke-dasharray:none;stroke-dashoffset:0;marker:none;visibility:visible;display:inline;overflow:visible;enable-background:accumulate" />
    <path
       d="m 326.0329,361.80433 c -0.8613,0.30367 -0.5012,1.53382 -0.54232,2.22261 0.14906,0.87037 0.07,1.89138 0.50676,2.66268 0.72176,-0.27473 1.27449,-0.98288 2.07147,-1.15576 0.32137,-0.64095 -0.11596,-1.46516 -0.33475,-2.09859 -0.34706,-0.65916 -0.84229,-1.63226 -1.70116,-1.63094 z"
       id="path3068"
       style="color:#000000;fill:#e9c6af;fill-opacity:1;fill-rule:nonzero;stroke:#e9c6af;stroke-width:1;stroke-linecap:round;stroke-linejoin:miter;stroke-miterlimit:4;stroke-opacity:0.98039216;stroke-dasharray:none;stroke-dashoffset:0;marker:none;visibility:visible;display:inline;overflow:visible;enable-background:accumulate" />
    <path
       d="m 319.36952,362.83118 c -0.68332,0.47797 -0.4633,1.55328 -0.58388,2.28026 0.0288,0.87634 -0.143,1.91268 0.14381,2.70726 0.53668,-0.11302 0.73961,-0.98864 1.41802,-0.92015 0.44986,-0.11959 1.01139,0.52199 1.31578,0.18225 -0.59586,-1.41406 -0.91792,-3.07727 -2.01812,-4.20073 -0.084,-0.0472 -0.18056,-0.0641 -0.27561,-0.0489 z"
       id="path3070"
       style="color:#000000;fill:#e9c6af;fill-opacity:1;fill-rule:nonzero;stroke:#e9c6af;stroke-width:1;stroke-linecap:round;stroke-linejoin:miter;stroke-miterlimit:4;stroke-opacity:0.98039216;stroke-dasharray:none;stroke-dashoffset:0;marker:none;visibility:visible;display:inline;overflow:visible;enable-background:accumulate" />
    <path
       d="m 368.74695,349.1577 c -0.6367,0.4339 -0.34037,1.45235 -0.46675,2.11148 0.057,0.71189 -0.15712,1.57944 0.27561,2.19149 0.60009,-0.22316 1.13712,-0.9648 1.88477,-0.63122 0.19896,0.21392 0.74898,0.26137 0.51564,-0.15559 -0.49117,-1.21415 -0.91879,-2.61329 -1.95145,-3.47615 -0.0788,-0.0389 -0.17058,-0.0533 -0.25782,-0.04 z"
       id="path3072"
       style="color:#000000;fill:#e9c6af;fill-opacity:1;fill-rule:nonzero;stroke:#e9c6af;stroke-width:1;stroke-linecap:round;stroke-linejoin:miter;stroke-miterlimit:4;stroke-opacity:0.98039216;stroke-dasharray:none;stroke-dashoffset:0;marker:none;visibility:visible;display:inline;overflow:visible;enable-background:accumulate" />
    <path
       d="m 376.89503,348.79319 c -0.67627,0.59826 -0.68795,1.69272 -0.91127,2.52044 0.31057,0.29306 0.87706,-0.35413 1.16909,0.13335 0.42315,0.31823 0.75843,0.80561 1.24466,1.00018 0.29303,-0.33076 -0.24586,-0.90343 -0.26082,-1.29875 -0.38255,-0.74824 -0.44431,-1.76873 -1.08163,-2.34188 -0.0517,-0.0145 -0.10644,-0.0244 -0.16003,-0.0133 z"
       id="path3074"
       style="color:#000000;fill:#e9c6af;fill-opacity:1;fill-rule:nonzero;stroke:#e9c6af;stroke-width:1;stroke-linecap:round;stroke-linejoin:miter;stroke-miterlimit:4;stroke-opacity:0.98039216;stroke-dasharray:none;stroke-dashoffset:0;marker:none;visibility:visible;display:inline;overflow:visible;enable-background:accumulate" />
    <path
       d="m 386.42556,348.58427 c -1.07323,0.42036 -1.76442,1.58275 -2.04479,2.66268 0.12737,0.53929 0.74581,-0.11664 0.95572,-0.28894 0.3638,-0.39615 0.87549,-0.87162 1.44025,-0.50231 0.59091,0.16848 1.0388,0.75082 1.64473,0.81348 0.18417,-0.47195 -0.34171,-1.02761 -0.50676,-1.47137 -0.32998,-0.52085 -0.79931,-1.22042 -1.48915,-1.21354 z"
       id="path3076"
       style="color:#000000;fill:#e9c6af;fill-opacity:1;fill-rule:nonzero;stroke:#e9c6af;stroke-width:1;stroke-linecap:round;stroke-linejoin:miter;stroke-miterlimit:4;stroke-opacity:0.98039216;stroke-dasharray:none;stroke-dashoffset:0;marker:none;visibility:visible;display:inline;overflow:visible;enable-background:accumulate" />
    <path
       d="m 397.55638,339.46713 c -0.75289,0.0797 -1.67104,0.506 -1.55138,1.41358 -0.0618,0.26795 0.0168,1.20252 0.47119,0.80014 0.35584,-0.73044 1.15984,-1.27566 1.39135,-2.07591 -0.0332,-0.13958 -0.19406,-0.15443 -0.31116,-0.13781 z"
       id="path3078"
       style="color:#000000;fill:#e9c6af;fill-opacity:1;fill-rule:nonzero;stroke:#e9c6af;stroke-width:1;stroke-linecap:round;stroke-linejoin:miter;stroke-miterlimit:4;stroke-opacity:0.98039216;stroke-dasharray:none;stroke-dashoffset:0;marker:none;visibility:visible;display:inline;overflow:visible;enable-background:accumulate" />
    <path
       d="m 413.89698,332.23477 c -0.94256,0.0358 -1.74506,0.78218 -2.24483,1.50693 0.11908,0.56678 0.80063,-0.1094 1.02684,-0.26671 0.55044,-0.50887 1.4819,-0.52923 1.9559,-1.07574 -0.0809,-0.27158 -0.53992,-0.14248 -0.73791,-0.16448 z"
       id="path3080"
       style="color:#000000;fill:#e9c6af;fill-opacity:1;fill-rule:nonzero;stroke:#e9c6af;stroke-width:1;stroke-linecap:round;stroke-linejoin:miter;stroke-miterlimit:4;stroke-opacity:0.98039216;stroke-dasharray:none;stroke-dashoffset:0;marker:none;visibility:visible;display:inline;overflow:visible;enable-background:accumulate" />
    <path
       d="m 418.65336,332.95934 c -0.45455,0.16144 -0.67747,0.70122 -0.2267,1.01351 0.29798,0.22963 0.63125,1.07928 1.07129,0.7868 -0.0269,-0.62733 -0.31506,-1.33429 -0.72457,-1.79586 -0.0376,-0.0117 -0.0816,-0.0125 -0.12002,-0.004 z"
       id="path3082"
       style="color:#000000;fill:#e9c6af;fill-opacity:1;fill-rule:nonzero;stroke:#e9c6af;stroke-width:1;stroke-linecap:round;stroke-linejoin:miter;stroke-miterlimit:4;stroke-opacity:0.98039216;stroke-dasharray:none;stroke-dashoffset:0;marker:none;visibility:visible;display:inline;overflow:visible;enable-background:accumulate" />
    <path
       d="m 444.3886,293.2751 c 0.008,0.45699 -0.42511,1.1761 -0.0489,1.54249 0.79042,-0.2238 1.45041,-1.06414 2.3693,-0.77791 0.23389,0.0977 0.94679,-0.0357 0.53787,-0.34229 -0.88427,-0.32809 -1.95943,-0.51151 -2.85827,-0.42229 z"
       id="path3084"
       style="color:#000000;fill:#e9c6af;fill-opacity:1;fill-rule:nonzero;stroke:#e9c6af;stroke-width:1;stroke-linecap:round;stroke-linejoin:miter;stroke-miterlimit:4;stroke-opacity:0.98039216;stroke-dasharray:none;stroke-dashoffset:0;marker:none;visibility:visible;display:inline;overflow:visible;enable-background:accumulate" />
    <path
       d="m 374.43872,735.20931 c -1.05786,0.82 -1.38627,2.7921 -0.31116,3.72953 0.44833,-0.25985 0.21015,-1.09326 0.3538,-1.54202 -0.0608,-0.7055 0.33078,-1.47986 0.11739,-2.15195 -0.0433,-0.0412 -0.10415,-0.0481 -0.16003,-0.0356 z"
       id="path3086"
       style="color:#000000;fill:#e9c6af;fill-opacity:1;fill-rule:nonzero;stroke:#e9c6af;stroke-width:1;stroke-linecap:round;stroke-linejoin:miter;stroke-miterlimit:4;stroke-opacity:0.98039216;stroke-dasharray:none;stroke-dashoffset:0;marker:none;visibility:visible;display:inline;overflow:visible;enable-background:accumulate" />
    <path
       d="m 338.42805,995.43209 c -1.18817,0.16725 -2.59183,0.0344 -3.58284,0.80903 -0.37979,0.68562 0.64418,1.10849 1.12464,1.33357 1.70942,0.67582 3.5467,1.14835 5.36537,1.3469 0.24405,-0.50138 -0.67952,-0.58714 -1.00017,-0.71568 -1.04199,-0.25437 -1.38483,-1.56006 -0.71226,-2.36154 0.78163,-0.90087 -0.82269,-0.29836 -1.19474,-0.41228 z"
       id="path3088"
       style="color:#000000;fill:#e9c6af;fill-opacity:1;fill-rule:nonzero;stroke:#e9c6af;stroke-width:1;stroke-linecap:round;stroke-linejoin:miter;stroke-miterlimit:4;stroke-opacity:0.98039216;stroke-dasharray:none;stroke-dashoffset:0;marker:none;visibility:visible;display:inline;overflow:visible;enable-background:accumulate" />
    <path
       d="m 373.77194,983.43891 c -0.0348,0.92131 0.58783,1.81694 0.82236,2.71602 0.44096,0.79958 0.27323,1.71744 -0.2267,2.44487 -0.25988,0.26795 -0.16944,0.95115 0.28449,0.62678 1.44122,-0.82935 1.11982,-2.85248 0.47564,-4.11183 -0.36601,-0.57278 -0.62659,-1.42778 -1.28467,-1.70251 l -0.0711,0.0267 z"
       id="path3090"
       style="color:#000000;fill:#e9c6af;fill-opacity:1;fill-rule:nonzero;stroke:#e9c6af;stroke-width:1;stroke-linecap:round;stroke-linejoin:miter;stroke-miterlimit:4;stroke-opacity:0.98039216;stroke-dasharray:none;stroke-dashoffset:0;marker:none;visibility:visible;display:inline;overflow:visible;enable-background:accumulate" />
    <path
       d="m 605.75108,927.25586 c -0.53346,0.52483 -0.587,1.40621 -1.03356,2.02489 -0.12192,0.49463 -0.7586,1.04238 -0.60672,1.53128 1.18549,0.15276 2.5492,-0.81907 2.24039,-2.12926 -0.13385,-0.37404 -0.0633,-1.36981 -0.60011,-1.42691 z"
       id="path3092"
       style="color:#000000;fill:#e9c6af;fill-opacity:1;fill-rule:nonzero;stroke:#e9c6af;stroke-width:1;stroke-linecap:round;stroke-linejoin:miter;stroke-miterlimit:4;stroke-opacity:0.98039216;stroke-dasharray:none;stroke-dashoffset:0;marker:none;visibility:visible;display:inline;overflow:visible;enable-background:accumulate" />
    <path
       d="m 593.81124,846.57968 c -0.41258,0.3168 0.22143,0.95106 0.27116,1.32912 1.07561,2.47704 1.93935,5.05679 3.00052,7.53019 0.34334,0.41365 0.60683,-0.26519 0.43118,-0.56009 -0.86206,-2.80896 -1.97261,-5.57153 -3.38725,-8.14363 -0.0726,-0.10348 -0.1786,-0.20554 -0.31561,-0.15559 z"
       id="path3094"
       style="color:#000000;fill:#e9c6af;fill-opacity:1;fill-rule:nonzero;stroke:#e9c6af;stroke-width:1;stroke-linecap:round;stroke-linejoin:miter;stroke-miterlimit:4;stroke-opacity:0.98039216;stroke-dasharray:none;stroke-dashoffset:0;marker:none;visibility:visible;display:inline;overflow:visible;enable-background:accumulate" />
    <path
       d="m 505.11145,639.46831 c -0.33752,0.93336 -0.13965,2.05269 -0.24893,3.04941 -0.1219,7.19352 -0.2133,14.396 0.08,21.58596 -0.07,0.32643 0.30123,1.13513 0.62233,0.61788 0.74916,-2.26262 0.87232,-4.70493 1.30528,-7.0486 0.35349,-2.70448 0.88415,-5.41054 1.04179,-8.12735 -0.35511,-0.48542 -1.46327,0.16859 -1.31134,-0.78236 -0.5434,-3.02618 -0.81082,-6.09843 -1.2091,-9.13936 -0.0481,-0.1079 -0.15262,-0.20154 -0.28005,-0.15558 z"
       id="path3096"
       style="color:#000000;fill:#e9c6af;fill-opacity:1;fill-rule:nonzero;stroke:#e9c6af;stroke-width:1;stroke-linecap:round;stroke-linejoin:miter;stroke-miterlimit:4;stroke-opacity:0.98039216;stroke-dasharray:none;stroke-dashoffset:0;marker:none;visibility:visible;display:inline;overflow:visible;enable-background:accumulate" />
    <path
       d="m 503.2578,678.75066 c -0.57697,0.48721 -0.36935,1.4942 -0.45483,2.18698 0.0469,1.79792 -0.1,3.64972 0.23701,5.41433 0.16916,0.51889 0.69065,0.0469 0.66234,-0.3245 0.45419,-2.30615 0.42811,-4.75752 -0.11113,-7.03677 -0.0569,-0.12864 -0.171,-0.27774 -0.33339,-0.24004 z"
       id="path3098"
       style="color:#000000;fill:#e9c6af;fill-opacity:1;fill-rule:nonzero;stroke:#e9c6af;stroke-width:1;stroke-linecap:round;stroke-linejoin:miter;stroke-miterlimit:4;stroke-opacity:0.98039216;stroke-dasharray:none;stroke-dashoffset:0;marker:none;visibility:visible;display:inline;overflow:visible;enable-background:accumulate" />
    <path
       d="m 504.08461,504.88948 c -0.37061,0.4103 0.0368,1.19059 -0.0642,1.71097 0.20242,3.07656 0.35294,6.1649 0.52653,9.23759 0.27795,0.49046 0.60817,-0.18094 0.52009,-0.49342 0.007,-3.23231 -0.10381,-6.48508 -0.53787,-9.69057 -0.0886,-0.23283 -0.0801,-0.79316 -0.44452,-0.76457 z"
       id="path3100"
       style="color:#000000;fill:#e9c6af;fill-opacity:1;fill-rule:nonzero;stroke:#e9c6af;stroke-width:1;stroke-linecap:round;stroke-linejoin:miter;stroke-miterlimit:4;stroke-opacity:0.98039216;stroke-dasharray:none;stroke-dashoffset:0;marker:none;visibility:visible;display:inline;overflow:visible;enable-background:accumulate" />
    <path
       d="m 486.26819,310.32694 c -0.26672,0.36732 0.50371,0.75242 0.6646,1.07883 0.8607,0.83325 1.60693,1.84892 2.61597,2.49067 0.47831,-0.19533 -0.17669,-0.81625 -0.32894,-1.04907 -0.85804,-0.92635 -1.71037,-1.99298 -2.86717,-2.52488 -0.0282,9.3e-4 -0.0567,-0.003 -0.0845,0.004 z"
       id="path3102"
       style="color:#000000;fill:#e9c6af;fill-opacity:1;fill-rule:nonzero;stroke:#e9c6af;stroke-width:1;stroke-linecap:round;stroke-linejoin:miter;stroke-miterlimit:4;stroke-opacity:0.98039216;stroke-dasharray:none;stroke-dashoffset:0;marker:none;visibility:visible;display:inline;overflow:visible;enable-background:accumulate" />
    <path
       d="m 281.93321,251.79706 3.55617,0"
       id="path3104"
       style="fill:none;stroke:#000000;stroke-width:1px;stroke-linecap:butt;stroke-linejoin:miter;stroke-opacity:1" />
    <path
       d="m 376.52734,255.35323 2.70269,-0.42674"
       id="path3108"
       style="fill:none;stroke:#000000;stroke-width:1px;stroke-linecap:butt;stroke-linejoin:miter;stroke-opacity:1" />
    <path
       d="m 409.8131,272.84959 -0.42674,5.97436"
       id="path3112"
       style="fill:none;stroke:#000000;stroke-width:1px;stroke-linecap:butt;stroke-linejoin:miter;stroke-opacity:1" />
    <path
       d="m 391.74775,117.51605 0.71124,7.39684"
       id="path3116"
       style="fill:none;stroke:#000000;stroke-width:1px;stroke-linecap:butt;stroke-linejoin:miter;stroke-opacity:1" />
    <path
       d="m 362.44491,117.9428 1.42247,-3.98292"
       id="path3120"
       style="fill:none;stroke:#000000;stroke-width:1px;stroke-linecap:butt;stroke-linejoin:miter;stroke-opacity:1" />
    <path
       d="m 360.88019,131.59849 -3.12943,0.71123"
       id="path3124"
       style="fill:none;stroke:#000000;stroke-width:1px;stroke-linecap:butt;stroke-linejoin:miter;stroke-opacity:1" />
    <path
       d="m 343.52608,126.4776 -0.99573,-6.4011"
       id="path3128"
       style="fill:none;stroke:#000000;stroke-width:1px;stroke-linecap:butt;stroke-linejoin:miter;stroke-opacity:1" />
    <path
       d="m 279.23052,87.501975 0.71123,-4.409652"
       id="path3132"
       style="fill:none;stroke:#000000;stroke-width:1px;stroke-linecap:butt;stroke-linejoin:miter;stroke-opacity:1" />
    <path
       d="m 280.79523,73.135046 1.70696,-2.70269"
       id="path3136"
       style="fill:none;stroke:#000000;stroke-width:1px;stroke-linecap:butt;stroke-linejoin:miter;stroke-opacity:1" />
  </g>
</svg>
